<svg width="0" height="0" class="hidden">

  <symbol fill="none" xmlns="http://www.w3.org/2000/svg" viewBox="0 0 120 120" id="main-card3">
    <path fill-rule="evenodd" clip-rule="evenodd"
          d="M14 29.01h53.016l-6.936 6.37H20.303v73.249h79.392V82.298l6.303-5.746V115H14V29.01z" fill="#9DA3AC"
          fill-opacity=".1"></path>
    <path fill-rule="evenodd" clip-rule="evenodd"
          d="M33.542 80.6l72.456-66.356V5l-81.6 75.6h9.144zm28.085 0l44.371-40.62v-9.244L52.481 80.6h9.145zm27.141 0l17.23-15.778v-9.229L79.578 80.6h9.19z"
          fill="#9DA3AC" fill-opacity=".1"></path>
    <path
      d="M36.164 90.857h-2.96v3.036c0 2.114.132 4.094.294 5.567h-.044a54.12 54.12 0 00-1.958-4.048l-2.504-4.555h-3.52v12.741h2.96v-3.126c0-2.277-.088-4.212-.162-5.7h.089c.5 1.31 1.34 2.947 2.003 4.182l2.547 4.644h3.255V90.857zm9.514 0h-4.139l-3.843 12.741h3.343l.795-2.992h3.299l.883 2.992h3.387l-3.725-12.741zm-3.461 7.591l.662-2.575c.162-.715.413-1.905.59-2.665h.044c.206.76.412 1.906.633 2.665l.633 2.575h-2.562zm8.939 5.076c.707.089 1.752.163 3.166.163 2.504 0 4.462-.461 5.714-1.429 1.208-.893 2.297-2.53 2.297-5.269 0-2.322-.839-3.93-2.209-4.942-1.207-.848-2.798-1.265-5.169-1.265a24.2 24.2 0 00-3.8.298v12.444zm3.255-10.39c.25-.045.544-.09 1-.09 2.092 0 3.462 1.31 3.462 3.96 0 3.126-1.502 4.391-3.667 4.391-.25 0-.59 0-.796-.044v-8.217zm17.951 8.023h-4.8v-10.3h-3.255v12.741h8.055v-2.441zm6.053-7.01c-2.886 0-5.007 1.77-5.007 4.852 0 2.992 2.003 4.763 4.89 4.763 2.297 0 4.962-1.265 4.962-4.853-.014-2.768-1.84-4.763-4.845-4.763zm1.502 4.822c0 1.474-.5 2.694-1.59 2.694s-1.635-1.176-1.635-2.694c0-1.31.412-2.694 1.635-2.694 1.134-.015 1.59 1.295 1.59 2.694zm14.02 2.024c-.5.164-1.34.298-2.091.298-2.342 0-3.8-1.4-3.8-4.004 0-2.873 1.709-4.138 3.8-4.138.913 0 1.59.164 2.091.387l.59-2.367c-.413-.163-1.415-.461-2.887-.461-3.711 0-7.054 2.188-7.054 6.713 0 3.543 2.165 6.371 6.715 6.371 1.414 0 2.548-.253 3.049-.462l-.413-2.337z"
      fill="#9DA3AC" fill-opacity=".1"></path>
  </symbol>
  <symbol fill="none" xmlns="http://www.w3.org/2000/svg" viewBox="0 0 120 120" id="main-card4">
    <path fill-rule="evenodd" clip-rule="evenodd"
          d="M73.02 65.507c0-5.126-.032-10.237-.048-15.353 0-1.2-.089-2.413-.089-3.617 0-2.875.34-6.097 2.76-8.215 4.26-3.736 12.763-2.898 15.521 2.037.849 1.509 1.01 3.736 1.1 5.421.136 2.132.146 4.288.136 6.42 0 1.875-.032 3.75-.058 5.625a148.222 148.222 0 00-.057 3.736c0 1.119-.016 2.266.057 3.384 0 .11.016.257.032.419.502.043 1.026.052 1.544.067.55 0 1.115.014 1.675.014V48.893c0-.567-.031-1.133-.047-1.7-.057-2.831.058-5.706 2.063-8.052.905-1.066 2.094-1.847 3.455-2.346a12.967 12.967 0 015.329-.69c4.644.39 7.952 3.317 8.429 7.595.057.595.073 1.228.089 1.823.031.861.031 1.727.047 2.575.016 2.241 0 4.464 0 6.705-.016 3.384-.073 6.758-.073 10.147 0 1.58.031 3.141.073 4.721.031 1.242.057 2.494.031 3.736-.057 2.508-.413 4.992-2.376 6.92-2.686 2.646-6.9 2.713-10.549 2.698l-22.972-.043c-7.643-.014-16.752.89-22.987-4.007a13.96 13.96 0 01-2.361-2.375c-2.822-3.669-3.429-8.295-3.47-12.668-.032-2.442.135-4.87.161-7.31 0-.567 0-2.023-.162-2.928a30.65 30.65 0 01-.46-.042c-.817-.053-1.66-.067-2.492-.081h-.414c-.016 1.927 0 3.86.016 5.787.031 3.222.073 6.449.089 9.685 0 1.052.089 2.132.104 3.198.058 3.103-.324 6.434-3.026 8.662-4.303 3.536-12.36 2.684-15.197-2.066-.89-1.508-1.052-3.779-1.157-5.492-.12-2.16-.136-4.33-.136-6.477 0-1.904.031-3.793.057-5.678.016-1.256.058-2.494.058-3.75 0-1.104 0-2.242-.073-3.346 0-.11-.016-.257-.032-.404a17.868 17.868 0 00-1.513-.053c-.591-.014-1.172-.014-1.764-.014a423.406 423.406 0 000 6.316c.016 3.383.074 6.786.074 10.184 0 1.337.104 2.684.03 4.022-.088 1.927-.502 3.793-1.737 5.41-.937 1.214-2.199 2.119-3.712 2.7-2.644.999-6.308.97-8.905-.148-3.041-1.323-4.628-3.846-4.942-6.853-.057-.69-.057-1.428-.073-2.133a140.362 140.362 0 01-.047-3.617C5 66.14 5 62.765 5 59.396c0-3.455.016-6.891.047-10.346.016-1.2.032-2.413.058-3.617.015-.7.015-1.523.12-2.214.356-2.155 1.408-4.088 3.382-5.41 2.743-1.861 6.026-1.766 9.26-1.766l22.967.043c7.643.014 16.68-.933 22.94 3.954a12.85 12.85 0 012.2 2.133c3.01 3.721 3.632 8.523 3.695 13.002.032 2.441-.12 4.868-.12 7.295 0 .581.015 2.009.178 2.913.162.014.298.029.413.043.833.052 1.66.067 2.492.08h.387z"
          fill="#9DA3AC" fill-opacity=".1"></path>
    <path fill-rule="evenodd" clip-rule="evenodd"
          d="M77.846 69.795c-2.643 0-9.156.404-11.04-.62-5.089-2.778 1.916-19.56-6.141-25.818-4.748-3.697-12.627-2.889-19.841-2.898-7.66-.019-15.318-.033-22.972-.043-3.9 0-7.271-.19-7.863 3.455-.225 1.31-.251 29.031-.047 30.987.178 1.714.937 2.751 2.21 3.303 1.334.58 3.575.61 4.983.067 3.13-1.2 2.466-4.669 2.466-8.096 0-3.735-.21-18.384.047-20.84 12.554 0 12.878-.904 12.878 8.162 0 3.265-.518 17.443.592 19.318 1.261 2.089 5.606 2.655 7.748.89 2.005-1.647 1.335-5.802 1.335-8.605-.016-3.36-.236-17.67 0-19.765 2.685 0 8.873-.376 10.878.58 5.34 2.575-1.99 19.37 6.172 25.805 4.707 3.707 12.627 2.927 19.841 2.941l22.972.043c9.721.029 8.015-1.509 8.015-13.706 0-3.589.209-18.547-.047-20.817-.43-3.94-4.733-4.155-7.183-3.28-3.073 1.105-2.45 4.87-2.45 8.04v20.897c-12.658 0-12.925.861-12.925-8.229 0-3.346.534-17.242-.581-19.222-1.246-2.213-5.906-2.646-7.91-.876-1.75 1.551-1.205 6.044-1.205 8.676.037 6.553.053 13.097.068 19.65z"
          fill="#fff"></path>
  </symbol>
  <symbol fill="none" xmlns="http://www.w3.org/2000/svg" viewBox="0 0 120 120" id="main-card5">
    <g clip-path="url(#clip0)" fill-opacity=".1">
      <path
        d="M87.952 18.105v27.688l11.518 11.55L87.952 68.89v16.473H71.65L60.134 96.912 48.486 85.364H32.053V68.89L20.536 57.342l11.517-11.549V18.117a47.917 47.917 0 00-13.659 15.735 47.16 47.16 0 00-5.675 22.48c0 13.086 5.3 24.942 13.858 33.525 8.556 8.579 20.377 13.89 33.425 13.89 13.049 0 24.87-5.311 33.426-13.89 8.559-8.582 13.857-20.44 13.857-33.525l.006-.005a46.432 46.432 0 00-5.589-22.481 47.53 47.53 0 00-13.75-15.741zm-2.72 28.244V13.01l2.098 1.37c6.999 4.568 12.787 10.823 16.761 18.18a49.093 49.093 0 015.908 23.77c.006 13.828-5.598 26.361-14.649 35.436-9.053 9.079-21.555 14.7-35.348 14.7s-26.294-5.621-35.348-14.7C15.604 82.692 10 70.16 10 56.332c0-8.591 2.18-16.688 6.005-23.766a50.64 50.64 0 0116.665-18.18L34.773 13v33.905l-10.41 10.437 10.41 10.437v14.865h14.82l10.53 10.44 10.41-10.44h14.7V67.78L95.64 57.342 85.232 46.905v-.556z"
        fill="#C6CDD9"></path>
      <path fill-rule="evenodd" clip-rule="evenodd"
            d="M28.12 27.016c-6.805 7.455-11.09 17.438-11.341 28.431l11.34-11.373V27.016zm63.89 0v17.058l11.342 11.373c-.252-10.993-4.537-20.85-11.341-28.431zM28.12 70.61L16.905 59.365c.63 10.109 4.788 19.333 11.215 26.41V70.61zm18.651 18.828h-14.87c6.93 5.939 15.626 9.73 25.203 10.362L46.771 89.438zM92.01 70.61v15.037c6.428-7.076 10.586-16.3 11.216-26.41L92.011 70.612zM73.234 89.438L62.901 99.8c9.577-.632 18.398-4.423 25.203-10.362h-14.87z"
            fill="#9DA3AC"></path>
      <path
        d="M60.002 76.78c5.633 0 10.73-2.288 14.419-5.985a20.418 20.418 0 005.971-14.463c0-5.65-2.282-10.764-5.971-14.463a20.3 20.3 0 00-14.419-5.986 20.299 20.299 0 00-14.418 5.986 20.417 20.417 0 00-5.972 14.463 20.42 20.42 0 005.972 14.463 20.3 20.3 0 0014.418 5.985zm15.7-4.711c-4.02 4.03-9.572 6.524-15.7 6.524s-11.68-2.494-15.7-6.524A22.222 22.222 0 0137.8 56.332a22.222 22.222 0 016.504-15.738c4.02-4.03 9.57-6.524 15.7-6.524 6.127 0 11.679 2.494 15.699 6.524a22.219 22.219 0 016.503 15.738 22.22 22.22 0 01-6.503 15.737z"
        fill="#C6CDD9"></path>
      <path d="M60.909 65.808v11.878h-1.813V65.808h1.813zm0-30.831V46.98h-1.813V34.977h1.813z" fill="#C6CDD9"></path>
      <path
        d="M77.702 46.103a78.873 78.873 0 01-8.096 1.202 97.7 97.7 0 01-9.478.456c-3.313 0-6.528-.158-9.574-.457-2.858-.28-5.543-.683-8.002-1.197a21.445 21.445 0 00-2.029 4.714 19.675 19.675 0 00-.785 5.51c0 1.994.267 3.89.785 5.669a18.989 18.989 0 002.014 4.563 79.078 79.078 0 018.111-1.205 97.653 97.653 0 019.48-.456c3.315 0 6.53.158 9.577.457 2.857.28 5.542.684 8 1.197a21.47 21.47 0 002.028-4.714c.505-1.735.785-3.577.785-5.51 0-1.934-.28-3.776-.785-5.511a21.422 21.422 0 00-2.03-4.718zm-8.273-.596a76.22 76.22 0 008.532-1.306l.624-.134.335.548a23.454 23.454 0 012.547 5.704c.556 1.909.865 3.92.865 6.013 0 2.092-.31 4.102-.865 6.013a23.462 23.462 0 01-2.547 5.703l-.338.552-.628-.138c-2.586-.569-5.419-1.01-8.426-1.305a96.484 96.484 0 00-9.4-.442 95.96 95.96 0 00-9.303.44 76.315 76.315 0 00-8.529 1.307l-.604.13-.34-.522a20.821 20.821 0 01-2.562-5.568 21.99 21.99 0 01-.864-6.17c0-2.093.308-4.104.864-6.013a23.431 23.431 0 012.547-5.704l.338-.553.628.139c2.588.569 5.42 1.01 8.428 1.306 2.947.289 6.1.44 9.397.44 3.236 0 6.357-.151 9.301-.44z"
        fill="#C6CDD9"></path>
      <path
        d="M60.002 46.074c1.594 0 3.161-.03 4.648-.106 1.16-.06 2.299-.146 3.403-.265-.854-2.924-2.022-5.372-3.408-7.104-1.379-1.723-2.963-2.716-4.643-2.716-1.68 0-3.263.993-4.642 2.716-1.38 1.725-2.544 4.16-3.397 7.067 1.135.096 2.283.187 3.398.255a76.86 76.86 0 004.641.153zm4.74 1.699c-1.599.08-3.185.114-4.74.114a78.84 78.84 0 01-4.747-.161c-1.614-.1-3.111-.224-4.53-.348l-1.064-.093.268-1.036c.931-3.605 2.32-6.647 4.022-8.775 1.727-2.16 3.787-3.404 6.051-3.404 2.265 0 4.324 1.244 6.051 3.404 1.702 2.128 3.092 5.17 4.023 8.775l.257.99-1.014.132a58.7 58.7 0 01-4.576.402zm-4.74 18.942c-1.595 0-3.16.03-4.647.107a57.73 57.73 0 00-3.402.265c.853 2.923 2.021 5.371 3.407 7.103 1.379 1.722 2.962 2.716 4.642 2.716 1.68 0 3.264-.994 4.643-2.716 1.386-1.733 2.554-4.18 3.408-7.104a58.532 58.532 0 00-3.355-.264 91.9 91.9 0 00-4.696-.107zm-4.74-1.698c1.6-.083 3.185-.115 4.74-.115 1.62 0 3.205.033 4.788.115 1.547.08 3.052.208 4.53.401l1.013.133-.257.99c-.931 3.604-2.32 6.647-4.023 8.775-1.727 2.159-3.786 3.403-6.05 3.403-2.265 0-4.325-1.244-6.052-3.403-1.702-2.128-3.09-5.171-4.022-8.776l-.256-.99 1.013-.132a58.309 58.309 0 014.576-.401z"
        fill="#C6CDD9"></path>
      <path
        d="M45.21 62.286V50.75h4.329c.88 0 1.586.115 2.12.349.532.234.948.593 1.25 1.08.302.483.453.99.453 1.522 0 .491-.135.956-.4 1.39-.266.436-.669.787-1.209 1.056.698.203 1.236.553 1.609 1.047.376.491.563 1.074.563 1.745a3.37 3.37 0 01-.343 1.509c-.229.465-.51.822-.846 1.074-.336.25-.757.44-1.262.57-.507.128-1.127.193-1.863.193h-4.4zm1.531-6.686h2.494c.676 0 1.163-.046 1.455-.134.39-.116.682-.31.878-.578.196-.268.296-.604.296-1.01a1.84 1.84 0 00-.277-1.011 1.39 1.39 0 00-.787-.602c-.34-.107-.926-.161-1.753-.161h-2.306V55.6zm0 5.332h2.873c.494 0 .84-.019 1.042-.056.348-.062.644-.167.88-.314a1.68 1.68 0 00.582-.645 2 2 0 00.229-.974c0-.433-.11-.806-.333-1.125a1.735 1.735 0 00-.919-.672c-.389-.128-.953-.193-1.686-.193h-2.668v3.98zm8.779-2.352l1.434-.129c.067.58.226 1.055.475 1.428.25.371.636.672 1.16.903.523.228 1.114.344 1.77.344.582 0 1.095-.087 1.54-.26.446-.176.776-.415.994-.718.218-.303.327-.633.327-.988a1.5 1.5 0 00-.314-.945c-.21-.268-.555-.494-1.039-.68-.309-.118-.993-.305-2.053-.56-1.061-.256-1.802-.494-2.226-.72-.55-.29-.96-.65-1.227-1.077a2.628 2.628 0 01-.406-1.436c0-.585.167-1.13.497-1.635.33-.508.81-.892 1.447-1.155.634-.263 1.34-.395 2.116-.395.853 0 1.608.138 2.26.414.653.274 1.155.68 1.507 1.217a3.49 3.49 0 01.566 1.817l-1.466.113c-.078-.727-.343-1.278-.797-1.649-.454-.373-1.125-.558-2.011-.558-.924 0-1.598.169-2.02.508-.42.338-.633.746-.633 1.224 0 .413.15.754.449 1.022.295.267 1.06.543 2.3.822 1.24.282 2.092.526 2.554.736.669.309 1.165.698 1.485 1.174.319.471.477 1.016.477 1.634 0 .615-.174 1.19-.526 1.732-.352.542-.853.964-1.511 1.265-.659.3-1.397.45-2.22.45-1.042 0-1.915-.153-2.619-.456a3.637 3.637 0 01-1.656-1.372c-.403-.61-.612-1.3-.634-2.07zm11.18 3.706V50.75h4.328c.88 0 1.587.115 2.121.349a2.71 2.71 0 011.248 1.08c.304.483.454.99.454 1.522 0 .491-.134.956-.4 1.39-.266.436-.668.787-1.208 1.056.698.203 1.235.553 1.608 1.047.376.491.564 1.074.564 1.745 0 .542-.115 1.045-.343 1.509-.229.465-.51.822-.846 1.074-.336.25-.757.44-1.262.57-.507.128-1.128.193-1.864.193h-4.4zm1.53-6.686h2.495c.676 0 1.163-.046 1.455-.134.39-.116.682-.31.878-.578.196-.268.295-.604.295-1.01 0-.383-.09-.721-.276-1.011a1.39 1.39 0 00-.787-.602c-.341-.107-.926-.161-1.753-.161H68.23V55.6zm0 5.332h2.874c.493 0 .84-.019 1.04-.056.35-.062.646-.167.882-.314a1.68 1.68 0 00.582-.645 2 2 0 00.229-.974c0-.433-.11-.806-.333-1.125a1.738 1.738 0 00-.919-.672c-.389-.128-.953-.193-1.686-.193H68.23v3.98z"
        fill="#9DA3AC"></path>
    </g>
    <defs>
      <clipPath id="clip0">
        <path fill="#fff" transform="translate(10 13)" d="M0 0h100v93.467H0z"></path>
      </clipPath>
    </defs>
  </symbol>
  <symbol fill="none" xmlns="http://www.w3.org/2000/svg" viewBox="0 0 120 120" id="main-card6">
    <path
      d="M38.273 52.309a5.659 5.659 0 005.654-5.654A5.659 5.659 0 0038.273 41H15.654A5.659 5.659 0 0010 46.654v27.33a5.659 5.659 0 005.655 5.655h22.618a5.659 5.659 0 005.654-5.654 5.659 5.659 0 00-5.654-5.655H21.309v-2.356h10.122a5.659 5.659 0 005.654-5.654 5.659 5.659 0 00-5.654-5.655H21.309V52.31h16.963zM72.2 41H50.75a5.659 5.659 0 00-5.654 5.654 5.659 5.659 0 005.654 5.655h5.07v21.676a5.659 5.659 0 005.655 5.654 5.659 5.659 0 005.654-5.654V52.309h5.07a5.659 5.659 0 005.655-5.654A5.659 5.659 0 0072.2 41zm25.313 13.665h-6.965a1.178 1.178 0 010-2.356h13.798A5.659 5.659 0 00110 46.655 5.659 5.659 0 00104.346 41H90.549c-6.89 0-12.488 5.598-12.488 12.487 0 6.89 5.608 12.487 12.487 12.487h6.965a1.178 1.178 0 010 2.356H83.716a5.659 5.659 0 00-5.654 5.655 5.659 5.659 0 005.654 5.654h13.797c6.889 0 12.487-5.598 12.487-12.487s-5.598-12.487-12.487-12.487z"
      fill="#9DA3AC" fill-opacity=".1"></path>
  </symbol>
  <symbol fill="none" xmlns="http://www.w3.org/2000/svg" viewBox="0 0 120 120" id="main-card1">
    <path
      d="M108.283 47.11c-1.616 4.46-3.654 5.46-4.692 5.884 0 0 1.058 1.557 1.557 2.654.5 1.134.981 3 .981 3-1.365-1.077-4.922-3.154-7.44-3-2.981.192-4.461 1.73-5.365 2.692a4.49 4.49 0 01-.289.308c2.52.365 9.114 2.019 13.209 7.442 1.231 1.615 1.981 3.635 2.365 5.654a50.173 50.173 0 00-.326-24.635zm-3.058 34.269c-4.037.5-10.17.076-14.19-3.654-3.902-3.635-2.999-7.443-.884-9.096 2.115-1.674 5.5-.135 6.538.557.673.442 1.557 1.327 1.557 1.327s-5.095 1.558-2.442 5.096c2.173 2.904 6.21 1.558 7.441-2.327 1.269-4.038-2-8.442-6.883-9.538-4.596-1.039-8.787-.789-11.863 4.327-1.673 2.769-1.52 6.558-1 9.423.307 1.692 2.269 6 5.21 8.327 3.865 3.038 6.922 3.865 11.306 4.192a47.895 47.895 0 005.21-8.635zM96.381 94.34l-2.326-.058.057 2.308 1.27-1.212c.345-.346.672-.692.999-1.038zm-6.595 5.865c-.327-4.365-1.154-7.404-4.172-11.25-2.327-2.942-6.633-4.904-8.326-5.211-2.883-.52-6.652-.673-9.42 1-5.115 3.077-5.365 7.288-4.327 11.865 1.096 4.885 5.518 8.154 9.537 6.885 3.884-1.212 5.23-5.25 2.326-7.443-3.557-2.653-5.095 2.443-5.095 2.443s-.23-.231-.5-.52c-.269-.307-.615-.692-.827-1.019-.692-1.038-2.21-4.442-.557-6.538s5.46-3.02 9.094.884c3.692 3.962 4.134 10.02 3.673 14.058 2.98-1.423 5.883-3.135 8.594-5.154zm-18.65 8.558c-1.884-.404-3.75-1.135-5.268-2.288-5.422-4.097-7.057-10.693-7.441-13.212-.096.096-.193.173-.289.288h-.019c-.961.904-2.5 2.385-2.692 5.366-.173 2.5 1.923 6.058 3 7.442 0 0-1.865-.481-3-1-1.096-.5-2.653-1.557-2.653-1.557-.404 1-1.365 2.942-5.441 4.519a49.84 49.84 0 0023.803.442zm33.245-71.46a49.945 49.945 0 00-9.23-12.692C75.676 5.13 44.086 5.13 24.609 24.61c-19.477 19.48-19.477 51.076 0 70.557 3.884 3.885 8.267 7 12.92 9.346 6.538-1.692 10.248-8.788 13.632-15.23 1.904-3.635 3.711-7.077 5.845-9.212 4.884-4.885 11.863-4.77 14.747-4.096l-4.21-8.212 8.21 4.212c-.673-2.885-.77-9.865 4.095-14.75 2.134-2.135 5.576-3.942 9.21-5.846 6.576-3.443 13.843-7.25 15.324-14.077z"
      fill="#9DA3AC" fill-opacity=".1"></path>
  </symbol>
  <symbol fill="none" xmlns="http://www.w3.org/2000/svg" viewBox="0 0 120 120" id="main-card2">
    <path
      d="M89.205 47.744l2.041-1.82-2.041-1.822c-1.9-1.695-4.025-2.956-6.512-3.35V36.68c0-1.47.993-3.816 1.486-5.238.698-2.023 1.443-4.502.706-6.607-.355-1.017-1.006-1.825-1.885-2.448L52.808 1l-.122 1.73c-.43 6.102 1.183 7.702 2.787 13.107.244.815-.426 2.554-.706 3.334-.784 2.172-1.537 4.23-1.537 6.57v6.78l-13.402-9.499-1.36 2.247c-7.406 12.278-7.406 29.034 0 41.309l1.36 2.254L53.23 59.33v6.78c0 2.345.753 4.398 1.537 6.57.28.785.95 2.52.706 3.335-1.604 5.396-3.213 7-2.787 13.102l.122 1.734 30.194-21.387c3.18-2.247 2.246-5.956 1.178-9.054-.493-1.423-1.486-3.764-1.486-5.239v-4.075c2.487-.39 4.612-1.656 6.512-3.35zm-6.768 20.923L53.659 89.045c-.43-6.172 1.096-7.178 2.751-12.759.335-1.123-.343-2.885-.725-3.942-.737-2.045-1.478-4.024-1.478-6.24v-8.667L40.123 67.42l-.816-1.352c-7.221-11.963-7.221-28.337 0-40.303l.816-1.352 14.084 9.988v-8.66c0-2.215.74-4.194 1.478-6.24.382-1.056 1.06-2.818.725-3.945-1.655-5.574-3.181-6.583-2.751-12.756l28.778 20.38c4.41 3.05-.718 9.732-.718 13.496v4.947c2.61.177 4.813 1.4 6.84 3.205l1.225 1.091-1.226 1.092c-2.022 1.81-4.23 3.027-6.839 3.2v4.952c-.003 3.772 5.125 10.453.718 13.504z"
      fill="#9DA3AC" fill-opacity=".1"></path>
    <path
      d="M87.575 45.928c-2.054-1.837-4.368-3.086-7.328-2.822v-6.429c0-3.863 4.569-10.063 1.352-12.29L54.88 5.897c.488 3.602 1.93 5.88 2.928 9.243.855 2.881-2.144 6.539-2.144 10.599V37.24L40.558 26.53c-6.633 10.998-6.921 25.905-.875 37.241 1.076-5.006 3.591-8.924 7.667-12.195.816-.655.445-1.956-1.112-1.668-3.275.607-5.16 3.591-8.683 3.895V39.117c3.524.335 5.408 3.26 8.683 3.894 1.557.304 1.928-1.013 1.112-1.67-4.088-3.28-6.606-7.21-7.675-12.232 4.671 4.419 10.15 7.761 15.905 10.899 1.372.753 1.395 1.955-.197 3.224-.414.327-.536.966.114 1.112 1.869.43 2.791 1.143 3.532 2.116-.741.978-1.663 1.691-3.532 2.12-.646.15-.528.785-.114 1.113 1.592 1.26 1.569 2.467.197 3.216-5.747 3.138-11.218 6.476-15.885 10.883.276.516.56 1.029.863 1.53l15.109-10.714v11.506c0 4.06 3 7.713 2.144 10.595-.997 3.366-2.444 5.636-2.929 9.247l26.721-18.487c3.217-2.23-1.352-8.43-1.352-12.294v-6.428c2.956.264 5.27-.986 7.324-2.819zm-12.05 19.768c-.646.15-.528.784-.114 1.111 1.592 1.266 1.569 2.468.193 3.22-5.755 3.138-11.234 6.48-15.909 10.9 1.072-5.026 3.587-8.956 7.679-12.24.816-.654.453-1.9-1.112-1.667-3.276.493-3.71 3.268-7.229 3.898V56.236c3.524.63 3.953 3.401 7.23 3.89 1.564.24 1.926-1.013 1.11-1.667-3.984-3.197-6.476-7.009-7.587-11.853l-.087.079.055-.233-.055-.232.087.083c1.115-4.84 3.603-8.652 7.588-11.853.816-.654.453-1.9-1.112-1.667-3.276.492-3.71 3.26-7.229 3.894V21.998c3.524.63 3.953 3.406 7.23 3.895 1.568.232 1.926-1.013 1.11-1.668-4.09-3.283-6.602-7.213-7.678-12.239C64.37 16.41 69.85 19.748 75.604 22.89c1.371.753 1.4 1.96-.193 3.22-.414.331-.536.966.114 1.116 1.868.433 2.787 1.143 3.528 2.12-.741.974-1.66 1.688-3.528 2.117-.646.15-.528.785-.114 1.116 1.592 1.261 1.569 2.467.193 3.216-5.656 3.083-11.04 6.366-15.66 10.666 4.623 4.309 10.004 7.588 15.66 10.67 1.371.75 1.4 1.96-.193 3.217-.414.33-.536.965.114 1.115 1.868.43 2.787 1.143 3.528 2.121-.741.974-1.66 1.683-3.528 2.113zm.24-17.143c.966 1.183 1.7 2.653 1.683 4.297L66.14 46.385l11.308-6.456c.016 1.64-.717 3.11-1.683 4.292a16.47 16.47 0 013.619 2.168c-1.112.86-2.31 1.6-3.619 2.164z"
      fill="#9DA3AC" fill-opacity=".1"></path>
    <path
      d="M44.273 26.17l-3.5-8.242-2.014.88 2.495 5.222 3.02 2.14zm32.256-8.37l.284-.8-2.09-.686-.05.17 1.856 1.316zm-38.063 7.466l.232-.382-2.62-4.73-1.913 1.08 3.426 5.577a37 37 0 01.875-1.545zm14.49 7.057l.272-.059v-4.423l-2.49-12.865-2.157.45 3.993 16.625.382.272zm-16.664-2.835l-4.651-6.642-1.79 1.273 5.637 7.336c.248-.662.52-1.32.804-1.967zM32.72 46.947l-15.33-9.259-1.111 1.88 15.739 8.59c.225-.41.457-.813.702-1.21zm.294-3.932l-12.669-9.574-1.3 1.758 13.886 9.57c.012-.587.04-1.17.083-1.754zm1.582-8.88l-7.087-8.151-1.644 1.45 8.21 8.644c.158-.65.332-1.3.52-1.943zm-1.055 4.549l-9.807-9.153-1.478 1.609 11.001 9.404a39.2 39.2 0 01.284-1.86zm47.208-17.888l.87-1.813-2.005-.9-.627 1.463 1.762 1.25zm8.819 30.664l16.606-6.89-.887-1.99-16.271 7.607c.193.422.374.843.552 1.273zm1.675-5.534l-2.041 1.82c-.182.162-.367.316-.552.47l15.27-8.286-1.1-1.888-12.207 7.332.63.552zm-6.686-21.824l1.635-2.653-1.9-1.1-1.186 2.125a5.021 5.021 0 011.45 1.628zm6.106 30.475l17.26-5.16-.678-2.073-17.004 5.9c.15.446.288.888.422 1.333zm.764 3.208l17.722-3.358-.453-2.132-17.553 4.122c.107.458.201.911.284 1.368zm.439 3.263l17.982-1.514-.229-2.164-17.899 2.294c.063.462.107.919.146 1.384zM31.148 49.859l-16.247-7.647-.907 1.987 16.587 6.933c.177-.43.367-.855.567-1.273zM54.44 20.08c.106-.303.216-.603.327-.91.28-.78.95-2.519.705-3.335a51.031 51.031 0 00-.457-1.454l-1.3.138.724 5.561zm28.247 19.944l11.75-12.306-1.627-1.466-10.123 11.584v2.188zm1.488-8.584c-.197.571-.477 1.297-.74 2.05l7.047-9.122-1.774-1.288-3.665 5.199c-.186 1.1-.529 2.183-.868 3.16zm4.799 12.471l12.223-8.372-1.288-1.766-12.172 9.149c.421.303.835.639 1.237.99zm-3.108-2.122l12.16-10.339-1.462-1.624L84.36 41.162c.516.17 1.016.383 1.505.627zM49.951 30.197l-4.276-14.001-2.093.67 4.174 11.774 2.195 1.557zm35.69 52.82l9.342 7.142h3.37l-11.9-8.293c-.26.386-.536.772-.812 1.15zm1.841-2.784l15.128 9.255 1.112-1.88-15.55-8.6c-.217.413-.45.823-.69 1.225zm-3.97 5.361l4.836 4.56h2.61l-6.512-5.628c-.307.366-.619.717-.934 1.068zm-2.393 2.356l1.896 2.21h2.124l-2.98-3.176c-.338.33-.685.65-1.04.965zM29.885 52.905L12.896 46.96l-.697 2.065 17.245 5.203c.137-.445.283-.887.441-1.324zm48.601 37.149l.075.11h1.798l-.733-.965c-.375.291-.753.579-1.14.855zM91.967 62.94c.008.272.008.54.008.808 0 .197-.004.39-.008.584L110 64.67v-2.176l-18.033.445zm-.239 4.844l17.84 2.436.249-2.164-17.947-1.66c-.035.466-.079.927-.142 1.388zm-2.703 9.508l16.078 7.682.911-1.986-16.433-6.981c-.174.433-.363.86-.556 1.285zm2.135-6.262l17.442 4.25.473-2.125-17.635-3.493a29.96 29.96 0 01-.28 1.368zm-.903 3.18l16.855 6.003.694-2.07-17.127-5.266c-.134.45-.272.891-.422 1.333zM39.412 90.158h1.821l.15-.205c-.386-.28-.769-.568-1.135-.864l-.836 1.069zm-4.862 0h2.16l2.054-2.321a30.18 30.18 0 01-1.036-.97l-3.177 3.291zm-6.52-26.404c0-.272 0-.54.007-.808L10 62.5v2.176l18.033-.339c0-.193-.004-.39-.004-.583zm.914-7.687L11.404 51.9l-.473 2.129 17.71 3.397c.098-.453.197-.91.303-1.36zm-.407 13.44L10.85 72.75l.457 2.128 17.506-4.008a26.891 26.891 0 01-.276-1.364zm-.204-10.21L10.44 56.96l-.244 2.164 17.978 1.56c.04-.46.098-.921.158-1.386zm-.209 6.939l-17.966 1.41.229 2.169 17.871-2.192a27.017 27.017 0 01-.134-1.387zm5.336 15.491L21 90.162h3.47l9.799-7.284c-.28-.375-.552-.761-.808-1.151zm-4.173-9.005l-17.202 5.033.674 2.078 16.937-5.771a27.91 27.91 0 01-.41-1.34zm6.168 11.681l-6.85 5.755h2.672l5.104-4.691c-.32-.347-.627-.702-.926-1.064zm-5.097-8.549l-16.527 6.752.895 1.99 16.188-7.453a30.96 30.96 0 01-.556-1.29zm1.396 3.008l-15.672 8.392 1.096 1.888 15.262-9.046c-.237-.406-.465-.82-.686-1.234zM79.14 109.1c9.898-3.004 16.658-9.141 21.68-16.768H88.723c-1.51 3.728-4.667 4.887-9.2 3.91 1.218 3.24 1.005 8.79-3.784 10.083-6.449 1.742-9.905-3.954-6.933-6.934 1.978 3.808 5.376 1.774 5.739-.753.441-3.074-5.716-4.99-8.483-1.762-2.755 3.209-3.465 9.799 4.257 13.343 4.758 2.188 8.1 3.741 9.96 8.08.88-2.1 1.152-6.338-1.138-9.199zm-25.328 4.536h11.592c-2.984-1.695-4.218-3.385-5.798-6.176-1.577 2.787-2.807 4.481-5.794 6.176zm1.635-21.304h8.321c-2.144 1.178-3.027 2.357-4.162 4.288-1.132-1.927-2.014-3.106-4.159-4.288zM40.453 109.1c-9.897-3.004-16.661-9.141-21.683-16.768h12.1c1.507 3.728 4.668 4.887 9.2 3.91-1.217 3.24-1.008 8.79 3.785 10.083 6.448 1.742 9.905-3.954 6.933-6.934-1.975 3.808-5.376 1.774-5.739-.753-.441-3.074 5.715-4.99 8.483-1.762 2.755 3.209 3.464 9.799-4.253 13.343-4.758 2.188-8.1 3.741-9.961 8.08-.887-2.1-1.159-6.338 1.135-9.199z"
      fill="#9DA3AC" fill-opacity=".1"></path>
  </symbol>
  <symbol fill="none" xmlns="http://www.w3.org/2000/svg" viewBox="0 0 223 50" id="tender1">
    <path
      d="M56.43 7.219h-5.25V17h-1.97V5.625h7.22v1.594zm-.094 5.476c0-.828.164-1.573.492-2.234.328-.667.79-1.177 1.383-1.531.594-.36 1.276-.54 2.047-.54 1.14 0 2.065.368 2.773 1.102.714.735 1.1 1.708 1.157 2.922l.007.445c0 .834-.161 1.579-.484 2.235a3.52 3.52 0 01-1.375 1.523c-.594.36-1.281.54-2.063.54-1.192 0-2.148-.397-2.867-1.188-.713-.797-1.07-1.857-1.07-3.18v-.094zm1.898.164c0 .87.18 1.553.54 2.047.359.49.859.735 1.5.735.64 0 1.137-.25 1.492-.75.359-.5.539-1.232.539-2.196 0-.854-.185-1.53-.555-2.03-.365-.5-.862-.75-1.492-.75-.62 0-1.112.247-1.477.741-.364.49-.547 1.224-.547 2.203zm11.04 2.782c.473 0 .867-.138 1.18-.414.312-.277.478-.618.5-1.024h1.788a2.808 2.808 0 01-.492 1.477A3.241 3.241 0 0171 16.758a3.725 3.725 0 01-1.703.398c-1.182 0-2.12-.383-2.813-1.148-.692-.766-1.039-1.823-1.039-3.172v-.195c0-1.287.344-2.316 1.032-3.086.687-.776 1.625-1.164 2.812-1.164 1.005 0 1.823.294 2.453.882.636.584.969 1.352 1 2.305h-1.789c-.02-.484-.187-.883-.5-1.195-.307-.313-.7-.469-1.18-.469-.614 0-1.088.224-1.421.672-.334.443-.503 1.117-.508 2.023v.305c0 .917.164 1.602.492 2.055.333.448.812.672 1.437.672zm7.859-1.36l1.719-5.734h2.023l-3.36 9.734c-.515 1.422-1.39 2.133-2.624 2.133-.276 0-.581-.047-.914-.14v-1.47l.359.024c.48 0 .838-.088 1.078-.265.245-.172.438-.464.578-.875l.274-.727-2.97-8.414h2.048l1.789 5.734zm4.437 1.203c.526-.588.878-1.146 1.055-1.671.182-.532.292-1.209.328-2.032l.11-3.234h5.867v6.937h1.172v4.032H88.21V17h-5.422v2.516h-1.922l.008-4.032h.695zm2.227 0h3.242V10.18h-2.133l-.054 1.617c-.073 1.552-.425 2.781-1.055 3.687zM96.507 17c-.083-.162-.155-.424-.218-.79a2.955 2.955 0 01-2.219.946c-.849 0-1.541-.242-2.078-.726-.536-.485-.805-1.084-.805-1.797 0-.901.334-1.591 1-2.07.672-.485 1.63-.727 2.876-.727h1.164v-.555c0-.437-.123-.786-.368-1.047-.244-.265-.617-.398-1.117-.398-.432 0-.786.11-1.062.328a.993.993 0 00-.414.82h-1.899c0-.463.154-.896.461-1.296.307-.407.724-.724 1.25-.954a4.433 4.433 0 011.774-.343c.99 0 1.778.25 2.367.75.588.494.89 1.192.906 2.093v3.813c0 .76.107 1.367.32 1.82V17h-1.937zm-2.085-1.367c.375 0 .726-.091 1.055-.274.333-.182.583-.427.75-.734v-1.594h-1.024c-.703 0-1.232.123-1.586.367-.354.245-.531.592-.531 1.04 0 .364.12.656.36.874.244.214.57.32.976.32zm13.094-2.774c0 1.308-.297 2.352-.891 3.133-.594.776-1.391 1.164-2.391 1.164-.927 0-1.669-.304-2.226-.914v4.008h-1.899V8.547h1.75l.079.86c.557-.678 1.315-1.016 2.273-1.016 1.031 0 1.838.385 2.422 1.156.588.765.883 1.83.883 3.195v.117zm-1.891-.164c0-.843-.169-1.513-.508-2.008-.333-.494-.812-.742-1.437-.742-.776 0-1.334.32-1.672.961v3.75c.344.656.906.985 1.687.985.604 0 1.076-.243 1.414-.727.344-.49.516-1.23.516-2.219zm6.977 2.946c.474 0 .867-.138 1.179-.414.313-.277.479-.618.5-1.024h1.789a2.813 2.813 0 01-.492 1.477 3.239 3.239 0 01-1.25 1.078 3.726 3.726 0 01-1.703.398c-1.182 0-2.12-.383-2.813-1.148-.692-.766-1.039-1.823-1.039-3.172v-.195c0-1.287.344-2.316 1.032-3.086.687-.776 1.625-1.164 2.812-1.164 1.005 0 1.823.294 2.453.882.636.584.969 1.352 1 2.305h-1.789c-.021-.484-.187-.883-.5-1.195-.307-.313-.7-.469-1.179-.469-.615 0-1.089.224-1.422.672-.334.443-.503 1.117-.508 2.023v.305c0 .917.164 1.602.492 2.055.333.448.813.672 1.438.672zm11.554-5.586h-2.742V17h-1.898v-6.945h-2.711V8.547h7.351v1.508zM125.57 17V8.547H129c1.156 0 2.036.203 2.641.61.604.4.906.978.906 1.734 0 .39-.123.742-.367 1.054-.24.308-.597.545-1.071.711.552.115.99.347 1.313.696.323.348.484.76.484 1.234 0 .786-.291 1.385-.875 1.797-.578.411-1.411.617-2.5.617h-3.961zm1.899-3.602V15.5h2.078c.974 0 1.461-.349 1.461-1.047 0-.703-.495-1.055-1.485-1.055h-2.054zm0-1.359h1.562c1.078 0 1.617-.318 1.617-.953 0-.667-.51-1.01-1.531-1.031h-1.648v1.984zm10.804 5.117c-1.203 0-2.179-.377-2.929-1.133-.745-.76-1.117-1.77-1.117-3.03v-.235c0-.844.161-1.596.484-2.258.328-.667.786-1.185 1.375-1.555a3.624 3.624 0 011.969-.554c1.151 0 2.039.367 2.664 1.101.63.735.945 1.774.945 3.117v.766h-5.523c.057.698.289 1.25.695 1.656.411.406.927.61 1.547.61.87 0 1.578-.352 2.125-1.055l1.023.976a3.435 3.435 0 01-1.359 1.18c-.563.276-1.195.414-1.899.414zm-.226-7.242c-.521 0-.943.182-1.266.547-.317.364-.521.872-.609 1.523h3.617v-.14c-.042-.636-.211-1.115-.508-1.438-.297-.328-.708-.492-1.234-.492zM150.305 17h-1.899v-3.414h-3.289V17h-1.898V8.547h1.898v3.523h3.289V8.547h1.899V17zm9.187 0h-1.898v-3.414h-3.289V17h-1.899V8.547h1.899v3.523h3.289V8.547h1.898V17zm4.07-5.766h1.86c.693 0 1.297.12 1.812.36.516.24.907.575 1.172 1.008.271.432.406.934.406 1.507 0 .87-.307 1.568-.921 2.094-.615.526-1.433.792-2.453.797h-3.774V8.547h1.898v2.687zM172.117 17h-1.898V8.547h1.898V17zm-8.555-4.242v2.726h1.852c.464 0 .828-.114 1.094-.343.271-.235.406-.566.406-.993 0-.427-.133-.763-.398-1.007-.261-.25-.615-.378-1.063-.383h-1.891zm14.555 4.398c-1.203 0-2.179-.377-2.929-1.133-.745-.76-1.118-1.77-1.118-3.03v-.235c0-.844.162-1.596.485-2.258.328-.667.786-1.185 1.375-1.555a3.62 3.62 0 011.968-.554c1.151 0 2.04.367 2.664 1.101.631.735.946 1.774.946 3.117v.766h-5.524c.058.698.289 1.25.696 1.656.411.406.927.61 1.547.61.869 0 1.578-.352 2.125-1.055l1.023.976a3.448 3.448 0 01-1.359 1.18c-.563.276-1.196.414-1.899.414zm-.226-7.242c-.521 0-.943.182-1.266.547-.318.364-.521.872-.609 1.523h3.617v-.14c-.042-.636-.211-1.115-.508-1.438-.297-.328-.708-.492-1.234-.492zM55.375 29.86c0 .375-.115.722-.344 1.04-.224.312-.541.562-.953.75.969.338 1.453.992 1.453 1.96 0 .776-.315 1.396-.945 1.86-.63.458-1.474.687-2.531.687a4.693 4.693 0 01-1.766-.32c-.531-.219-.945-.526-1.242-.922-.297-.401-.445-.875-.445-1.422h1.89c0 .344.154.633.461.867.307.23.695.344 1.164.344.464 0 .83-.107 1.102-.32.276-.219.414-.503.414-.852 0-.411-.12-.708-.36-.89-.24-.183-.609-.274-1.109-.274h-1.36V31h1.407c.849-.01 1.273-.36 1.273-1.047 0-.344-.122-.612-.367-.805-.245-.192-.58-.289-1.008-.289-.416 0-.768.104-1.054.313-.287.203-.43.46-.43.773h-1.89c0-.744.312-1.354.937-1.828.625-.479 1.42-.719 2.383-.719 1.047 0 1.862.214 2.445.641.583.427.875 1.034.875 1.82zm6.82 6.14c-.083-.161-.156-.425-.218-.79a2.955 2.955 0 01-2.22.946c-.848 0-1.54-.242-2.077-.726-.537-.485-.805-1.084-.805-1.797 0-.901.333-1.591 1-2.07.672-.485 1.63-.727 2.875-.727h1.164v-.555c0-.437-.122-.786-.367-1.047-.245-.265-.617-.398-1.117-.398-.433 0-.787.11-1.063.328a.993.993 0 00-.414.82h-1.898c0-.463.153-.896.46-1.297.308-.406.725-.724 1.25-.953a4.432 4.432 0 011.774-.343c.99 0 1.779.25 2.367.75.589.494.89 1.192.907 2.093v3.813c0 .76.106 1.367.32 1.82V36h-1.938zm-2.086-1.367c.375 0 .727-.091 1.055-.274.333-.182.583-.427.75-.734v-1.594h-1.023c-.703 0-1.232.123-1.586.367-.355.245-.532.592-.532 1.04 0 .364.12.656.36.874.245.214.57.32.976.32zm8.696-1.977h-.961V36h-1.899v-8.453h1.899v3.375h.836l2.336-3.375h2.343l-3.054 4.047L73.617 36h-2.469l-2.343-3.344zm8.812.625l1.719-5.734h2.023L78 37.28c-.516 1.422-1.39 2.133-2.625 2.133a3.4 3.4 0 01-.914-.14v-1.47l.36.024c.478 0 .838-.088 1.077-.266.245-.171.438-.463.579-.874l.273-.727-2.969-8.414h2.047l1.79 5.734zM89.625 36h-1.898v-6.922H84.43V36h-1.9v-8.453h7.094V36zm5.023-3.344h-.96V36h-1.899v-8.453h1.898v3.375h.836l2.336-3.375h2.344l-3.055 4.047L99.461 36h-2.469l-2.344-3.344zm11.133-5.11h1.891V36h-1.891v-5.64L102.469 36h-1.891v-8.453h1.891v5.64l3.312-5.64zm-66.465-12.7c-.647 1.785-1.462 2.185-1.877 2.354 0 0 .423.623.623 1.062.2.453.392 1.2.392 1.2-.546-.431-1.969-1.262-2.976-1.2-1.192.076-1.785.692-2.146 1.076-.038.047-.077.085-.115.123 1.007.147 3.645.808 5.283 2.978.492.646.792 1.453.946 2.261.777-3.238.73-6.63-.13-9.854zm-1.223 13.708c-1.615.2-4.069.03-5.676-1.462-1.561-1.453-1.2-2.977-.354-3.638.846-.67 2.2-.054 2.615.223.27.177.623.53.623.53s-2.038.624-.977 2.04c.87 1.16 2.484.622 2.977-.932.507-1.615-.8-3.377-2.754-3.815-1.838-.415-3.514-.315-4.745 1.73-.67 1.108-.608 2.624-.4 3.77.123.677.907 2.4 2.084 3.33 1.546 1.216 2.769 1.547 4.522 1.678a19.186 19.186 0 002.085-3.454zm-3.538 5.185l-.93-.024.022.923.508-.484c.138-.139.27-.277.4-.416zm-2.638 2.346c-.13-1.747-.462-2.962-1.669-4.5-.93-1.177-2.653-1.962-3.33-2.085-1.154-.208-2.661-.27-3.769.4-2.045 1.23-2.145 2.915-1.73 4.746.438 1.954 2.207 3.262 3.815 2.754 1.553-.485 2.091-2.1.93-2.977-1.423-1.062-2.038.977-2.038.977s-.092-.092-.2-.208c-.107-.123-.246-.277-.33-.407-.277-.416-.885-1.777-.224-2.616.662-.838 2.185-1.207 3.638.354 1.477 1.585 1.654 4.008 1.47 5.623a20.654 20.654 0 003.437-2.061zm-7.46 3.423c-.754-.162-1.5-.454-2.107-.916-2.17-1.638-2.823-4.277-2.977-5.284-.038.038-.077.069-.115.115h-.008c-.384.362-1 .954-1.077 2.146-.069 1 .77 2.423 1.2 2.977 0 0-.746-.192-1.2-.4-.438-.2-1.06-.623-1.06-.623-.162.4-.547 1.177-2.177 1.808 3.114.83 6.383.884 9.52.177z"
      fill="#5891A4"></path>
    <path
      d="M37.755 10.924a19.974 19.974 0 00-3.692-5.077c-7.79-7.793-20.427-7.793-28.217 0-7.791 7.792-7.791 20.43 0 28.223a20.1 20.1 0 005.168 3.738c2.615-.677 4.1-3.515 5.453-6.092.761-1.454 1.484-2.83 2.338-3.685 1.953-1.953 4.745-1.907 5.898-1.638l-1.684-3.285 3.284 1.685c-.269-1.154-.307-3.946 1.638-5.9.854-.854 2.23-1.577 3.684-2.339 2.63-1.376 5.538-2.9 6.13-5.63z"
      fill="url(#paint0_linear)"></path>
    <defs>
      <linearGradient id="paint0_linear" x1="4.5" y1="6" x2="23.5" y2="26" gradientUnits="userSpaceOnUse">
        <stop offset=".4" stop-color="#FFB700"></stop>
        <stop offset="1" stop-color="#FE930A"></stop>
      </linearGradient>
    </defs>
  </symbol>
  <symbol fill="none" xmlns="http://www.w3.org/2000/svg" viewBox="0 0 99 44" id="tender2">
    <g clip-path="url(#clip0)">
      <path
        d="M6.764 23.757L0 23.886v-.816l6.766.165c-.003.102-.003.203-.003.303l.001.22zm11.744-12.301l-.165-6.53h.826l-.127 6.53c-.095-.003-.19-.003-.287-.003-.081 0-.165.001-.247.003zm12.238 11.78l6.766-.166v.816l-6.764-.127c.001-.073.003-.145.003-.22 0-.101 0-.202-.005-.304zM6.85 24.99l-6.704.822L.059 25l6.74-.53c.011.175.029.348.05.521zm10.395-13.443l-.848-6.476.82-.085.56 6.507c-.177.016-.354.032-.532.054zm13.41 10.457l6.713-.86.086.81-6.745.569a10.565 10.565 0 00-.055-.52zm-23.6 4.206L.49 27.714l-.172-.799L6.954 25.7c.03.171.065.341.102.511zM16 11.774l-1.529-6.361.809-.169 1.242 6.42c-.175.031-.35.07-.522.11zm14.436 9.013l6.584-1.547.17.8-6.647 1.26a10.621 10.621 0 00-.107-.513zM7.388 27.405L1.035 29.57l-.253-.778 6.453-1.888c.047.167.097.334.153.5zm7.4-15.274l-2.19-6.18.784-.251 1.914 6.264c-.172.052-.34.108-.508.168zm15.31 7.467l6.38-2.213.253.777-6.474 1.936c-.05-.167-.102-.333-.158-.5zM7.845 28.563L1.77 31.358l-.335-.746 6.2-2.531c.067.16.135.322.208.482zm5.78-15.951L10.786 6.68l.756-.33 2.567 6.045c-.164.07-.327.142-.487.217zm16.013 5.839l6.104-2.854.333.747-6.23 2.584a9.69 9.69 0 00-.207-.477zM8.417 29.669l-5.725 3.393-.41-.709 5.878-3.147c.083.156.169.312.257.463zm4.1-16.454L9.065 7.59l.717-.405 3.195 5.762c-.157.087-.309.176-.46.27zm16.544 4.136l5.759-3.459.412.709-5.912 3.208c-.085-.155-.17-.308-.26-.458zm-3.343 16.094l-.028-.042a11.3 11.3 0 00.427-.32l.275.362h-.674zM9.103 30.714l-3.675 2.73H4.127L8.8 30.282c.096.146.198.29.303.433zm2.38-16.785L7.447 8.675l.671-.478 3.796 5.417c-.145.102-.289.206-.43.315zm16.89 2.387l5.353-4.023.483.662-5.531 3.79c-.1-.145-.2-.289-.305-.43zm-.984 17.129l-.712-.83c.133-.118.264-.238.39-.362l1.119 1.192h-.797zm-17.493-1.76l-1.915 1.76H6.98l2.57-2.16c.112.137.227.27.347.4zm.637-16.944L5.951 9.917l.617-.544 4.357 5.012c-.135.117-.263.235-.392.356zm17.048.614l4.888-4.54.548.608-5.09 4.328a11.078 11.078 0 00-.346-.396zm1.806 18.09l-1.814-1.711c.119-.132.235-.265.35-.4l2.442 2.112h-.977v-.001zm-18.598-.871l-.77.87h-.81L10.4 32.21c.127.124.256.245.389.364zM9.673 15.646l-5.078-4.34.555-.603 4.874 4.551c-.12.129-.238.259-.351.392zm17.018-1.17l4.372-5.004.61.55-4.595 4.814a12.858 12.858 0 00-.387-.36zm5.186 18.969l-3.504-2.68c.104-.141.207-.286.306-.431l4.464 3.11h-1.266zm-20.105-.077l-.056.077h-.683l.313-.401c.138.11.281.217.426.324zm-2.86-16.734l-5.52-3.805.488-.66 5.34 4.037c-.105.14-.208.283-.307.428zm16.801-2.941l3.812-5.41.665.483-4.052 5.246c-.14-.11-.281-.217-.425-.32zm9.027 19.5l-5.675-3.471c.09-.151.176-.305.259-.46l5.833 3.226-.417.705zM8.26 17.69l-5.905-3.221.417-.706 5.75 3.473c-.091.15-.179.3-.263.454zm16.395-4.675l3.213-5.756.712.413-3.468 5.617a14.15 14.15 0 00-.457-.274zM35.675 31.5l-6.032-2.882c.073-.158.142-.32.209-.48l6.164 2.617-.342.745zM7.718 18.804l-6.221-2.6.34-.746 6.094 2.869a9.203 9.203 0 00-.213.477zm15.81-6.355l2.582-6.041.753.339-2.851 5.927a8.975 8.975 0 00-.483-.225zm12.896 17.265l-6.322-2.252c.056-.165.108-.33.157-.5l6.424 1.976-.259.776zm-29.13-9.748L.827 18.015l.261-.775 6.371 2.23c-.059.165-.114.33-.164.496zm15.053-7.96l1.93-6.26.783.258-2.207 6.175a7.808 7.808 0 00-.506-.173zm14.638 15.857l-6.543-1.594c.039-.168.074-.34.105-.513l6.615 1.31-.177.797zM6.994 21.165L.35 19.891l.178-.799 6.58 1.563c-.042.169-.079.34-.114.51zm14.131-9.476l1.26-6.415.806.176-1.544 6.358a12.652 12.652 0 00-.522-.119zm16.223 14.276l-6.692-.914c.022-.173.04-.346.053-.52l6.732.622-.093.812zM6.816 22.388l-6.744-.585.092-.812 6.711.877c-.02.174-.043.347-.059.52zm13.057-10.882l.577-6.507.822.092-.868 6.476a10.558 10.558 0 00-.53-.061z"
        fill="#846D41"></path>
      <path
        d="M27.266 14.913c.934.147 1.731.62 2.442 1.256l.766.683-.766.683c-.712.636-1.51 1.11-2.442 1.257v1.53c0 .55.372 1.43.557 1.964.4 1.162.751 2.553-.442 3.396l-11.326 8.023-.045-.65c-.162-2.29.443-2.891 1.045-4.915.092-.306-.16-.957-.265-1.251-.294-.813-.576-1.585-.576-2.465v-2.543l-5.027 3.565-.51-.846c-2.779-4.604-2.779-10.89 0-15.495l.51-.843 5.027 3.563V9.282c0-.878.282-1.65.576-2.464.105-.293.357-.945.265-1.251C16.453 3.54 15.85 2.94 16.01.65l.047-.65 11.326 8.023c.328.232.573.535.706.918.277.79-.003 1.72-.264 2.478-.185.534-.558 1.413-.558 1.965v1.529h-.001z"
        fill="#846D41"></path>
      <path
        d="M26.9 15.24c.98.066 1.806.524 2.566 1.201l.46.41-.46.41c-.759.678-1.587 1.135-2.565 1.2v1.857c0 1.412 1.923 3.918.269 5.063l-10.795 7.644c-.161-2.316.41-2.693 1.032-4.786.126-.422-.129-1.083-.272-1.479-.277-.767-.555-1.51-.555-2.34v-3.252l-5.282 3.745-.306-.507c-2.71-4.487-2.71-10.629 0-15.118l.306-.507 5.282 3.747V9.28c0-.831.278-1.573.555-2.34.143-.397.398-1.058.272-1.48-.621-2.091-1.193-2.47-1.032-4.785L27.17 8.32c1.654 1.144-.27 3.65-.27 5.062v1.857z"
        fill="#fff"></path>
      <path
        d="M17.13 9.28c0-1.522 1.126-2.894.805-3.975-.374-1.263-.917-2.116-1.099-3.467L26.86 8.774c1.207.834-.507 3.16-.507 4.61v2.411c1.112-.099 1.978.368 2.749 1.059-.77.689-1.639 1.156-2.749 1.057v2.412c0 1.449 1.714 3.774.507 4.611l-10.023 6.934c.184-1.352.725-2.205 1.099-3.468.32-1.08-.805-2.453-.805-3.974v-4.318l-5.667 4.019c-2.604-4.314-2.604-10.236 0-14.55l5.667 4.02V9.28z"
        fill="#123258"></path>
      <path
        d="M24.61 8.21c-2.158-1.177-4.213-2.43-5.967-4.09.402 1.886 1.345 3.36 2.88 4.592.306.245.172.714-.417.625-1.228-.183-1.391-1.224-2.711-1.46v5.507c1.321-.238 1.483-1.276 2.711-1.461.587-.089.723.38.417.625-1.495 1.2-2.43 2.63-2.846 4.446l-.032-.03.02.087-.02.087.032-.03c.418 1.817 1.351 3.246 2.846 4.446.306.246.17.714-.417.626-1.228-.184-1.391-1.223-2.711-1.46v5.508c1.321-.237 1.483-1.278 2.711-1.462.587-.088.723.381.417.625-1.535 1.232-2.476 2.706-2.88 4.59 1.753-1.657 3.809-2.91 5.967-4.087.515-.283.525-.734-.072-1.208-.155-.124-.201-.363.043-.417.7-.161 1.045-.427 1.323-.796-.278-.365-.622-.633-1.323-.795-.243-.056-.198-.294-.043-.419.597-.473.588-.925.072-1.206-2.121-1.156-4.14-2.386-5.874-4.002 1.733-1.613 3.753-2.845 5.874-4.001.515-.281.525-.735-.072-1.207-.155-.124-.201-.364.043-.418.7-.162 1.045-.428 1.323-.794-.278-.367-.622-.633-1.323-.796-.243-.056-.198-.292-.043-.418.597-.472.587-.926.072-1.207zm.06 8c.362-.443.637-.994.63-1.61l-4.241 2.423 4.242 2.424c.006-.616-.27-1.166-.631-1.611a6.23 6.23 0 001.357-.813 6.226 6.226 0 00-1.358-.812zm-7.572-1.578c-2.159-1.177-4.214-2.431-5.967-4.087.4 1.882 1.345 3.358 2.878 4.588.306.247.167.74-.417.627-1.228-.238-1.935-1.335-3.257-1.461v5.508c1.322-.113 2.029-1.232 3.257-1.461.584-.108.723.38.417.625-1.533 1.232-2.476 2.706-2.879 4.59 1.753-1.658 3.808-2.91 5.968-4.09.514-.281.523-.733-.074-1.206-.155-.125-.201-.363.043-.418.7-.162 1.047-.428 1.325-.795-.278-.365-.624-.631-1.325-.794-.243-.056-.198-.294-.043-.417.599-.476.588-.928.074-1.21z"
        fill="#fff"></path>
      <path
        d="M26.067 40.55c3.712-1.128 6.248-3.43 8.132-6.29H29.66c-.566 1.398-1.75 1.833-3.45 1.466.456 1.215.376 3.297-1.42 3.782-2.42.654-3.716-1.483-2.601-2.6.742 1.428 2.017.665 2.153-.283.165-1.153-2.144-1.872-3.182-.66-1.034 1.203-1.3 3.675 1.597 5.004 1.784.82 3.038 1.403 3.736 3.031.328-.788.432-2.377-.427-3.45zm-9.501 1.7h4.348c-1.12-.635-1.582-1.27-2.175-2.316-.591 1.045-1.053 1.681-2.173 2.317zm.613-7.99H20.3c-.804.441-1.135.884-1.56 1.608-.425-.723-.756-1.165-1.56-1.609zm-5.626 6.29c-3.712-1.128-6.25-3.43-8.133-6.29h4.539c.565 1.398 1.75 1.833 3.45 1.466-.456 1.215-.378 3.297 1.42 3.782 2.42.654 3.716-1.483 2.601-2.6-.74 1.428-2.017.665-2.153-.283-.165-1.153 2.144-1.872 3.182-.66 1.034 1.203 1.3 3.675-1.595 5.004-1.785.82-3.039 1.403-3.737 3.031-.33-.788-.434-2.377.426-3.45z"
        fill="#123258"></path>
      <path
        d="M41.543 14.151H98.02v.527H41.543v-.527zm0 12.65H98.02v.526H41.543V26.8zm.25-3.175a9.966 9.966 0 01-.067.53 2.985 2.985 0 01-.074.38c-.02.105-.056.233-.103.383a31.28 31.28 0 01-.178.53l.547.252c.144.07.294.125.45.166.16.043.323.083.492.116a5.822 5.822 0 001.066.099 4.38 4.38 0 001.437-.22 3.416 3.416 0 001.133-.637c.363-.33.64-.699.828-1.106.186-.41.28-.858.28-1.35a2.937 2.937 0 00-.14-.927 2.923 2.923 0 00-.18-.45 2.408 2.408 0 00-.228-.377c-.161-.204-.4-.413-.718-.63-.321-.215-.72-.447-1.205-.69a49.282 49.282 0 01-.619-.326 9.246 9.246 0 01-.533-.318 1.725 1.725 0 01-.568-.553 1.297 1.297 0 01-.19-.696 1.14 1.14 0 01.11-.55 1.28 1.28 0 01.352-.432c.142-.12.296-.206.469-.257a1.93 1.93 0 01.585-.08c.19 0 .374.022.552.074.177.052.346.128.501.233.112.064.222.173.327.327.105.155.205.343.303.57h.266c.05-.174.09-.329.118-.459.031-.135.058-.243.079-.325l.266-.688-.365-.224a4.189 4.189 0 00-.94-.342 4.705 4.705 0 00-1.025-.108 4.26 4.26 0 00-1.273.2 3.214 3.214 0 00-1.516 1.05 2.46 2.46 0 00-.328.575c-.076.181-.135.38-.178.597a3.91 3.91 0 00-.06.707 3.867 3.867 0 00.155 1.08c.225.632.702 1.152 1.431 1.559l.927.504c.176.092.346.183.515.278.164.089.325.185.482.285.288.184.505.379.65.592.148.211.22.439.22.686 0 .224-.047.434-.143.628a1.687 1.687 0 01-.403.522 1.42 1.42 0 01-.522.253 2.755 2.755 0 01-.713.084c-.47.006-.866-.115-1.189-.366-.32-.253-.564-.638-.734-1.15h-.35zm6.413 1.206l-.533 1.066.8-.026.757.026.295-1.024.21-.648c.068-.206.138-.413.212-.617l.238-.63.757-.085c.12-.013.258-.02.42-.025.16-.003.344-.003.548-.003a19.904 19.904 0 01.995.028l.787.084.21.646.464 1.278.294.995 1.236-.027 1.418.027-.533-1.094a89.959 89.959 0 01-2.612-6.233l-.686-1.862-.365-.998-.645.042-.518-.043-.352.999-.73 1.892a141.32 141.32 0 01-2.666 6.232zm2.43-3.018l.238-.575.715-1.81.352-.842.336.843.73 1.81.238.574-.477.07c-.111.015-.23.022-.35.024-.123.004-.254.004-.394.004-.322 0-.618-.013-.884-.041l-.504-.057zm8.027 4.058l.715.026.028-.897c.015-.339.039-.716.073-1.137.034-.42.075-.884.124-1.39l.225-2.05.14-1.191.59 1.15.757 1.573.926 1.922c.134.281.253.531.36.752.092.192.184.387.273.582l.28.688.295-.027.309.027.464-1.108a42.359 42.359 0 011.221-2.583l.913-1.768.603-1.251.112 1.208.238 2.036c.015.155.04.442.074.865.033.426.074.988.123 1.69l.056.912 1.304-.026 1.18.026-.24-1.304a74.469 74.469 0 01-.617-4.097c-.098-.723-.18-1.394-.255-2.018a85.288 85.288 0 01-.179-1.743l-.112-1.025-.575.043-.59-.043-.435 1.053a71.805 71.805 0 01-1.264 2.65l-1.206 2.346-.536.981-.532-1.024a50.337 50.337 0 01-.565-1.096 40.3 40.3 0 01-.587-1.221l-1.025-2.175-.674-1.516-.56.043-.617-.043-.155 1.347-.434 3.397-.253 1.796c-.068.41-.135.82-.198 1.229-.072.454-.156.946-.252 1.48l-.182.94.66-.03zm13.166-10.12l-1.135-.043.07.619c.014.189.026.415.033.68.008.261.009.56.009.888v5.493c-.007.34-.012.68-.015 1.019a26.27 26.27 0 01-.013.662l-.084.828 1.165-.026 1.206.026-.056-.813a28.43 28.43 0 01-.041-1.683l-.014-1.694v-.588l.379.588c.217.334.41.642.573.92.156.255.305.513.45.774l.94 1.683.45.813 1.277-.026 1.446.026-.59-.785a44.65 44.65 0 01-1.04-1.578 61.684 61.684 0 01-1.135-1.868l-.45-.8a6.45 6.45 0 00.796-.241c.22-.085.392-.173.51-.265.2-.127.376-.288.52-.475a2.39 2.39 0 00.351-.63 2.26 2.26 0 00.13-.49c.027-.166.039-.339.039-.52a2.65 2.65 0 00-.234-1.087 2.392 2.392 0 00-.665-.848 2.561 2.561 0 00-.887-.45 4.233 4.233 0 00-1.205-.154l-1.32.028-1.46.017zm1.124 4.764v-3.853l.532-.043c.57 0 .997.142 1.282.43.288.289.43.72.43 1.294a3.121 3.121 0 01-.11.796 1.963 1.963 0 01-.324.662 1.916 1.916 0 01-.59.538 1.548 1.548 0 01-.716.188l-.504-.012zm8.562-4.175l.041-.632-1.207.043-1.179-.043.056.589.042 1.053.013 1.824v2.415c0 .372.012.71.035 1.008.023.302.064.563.119.788.063.302.168.58.32.833.15.255.347.486.59.696.422.386.913.674 1.473.866.56.188 1.189.286 1.882.286.303 0 .595-.018.877-.056.283-.037.562-.098.835-.182.296-.092.567-.204.815-.34.247-.136.478-.3.688-.488.33-.283.594-.652.79-1.112.197-.46.326-1.014.388-1.668.028-.182.05-.532.067-1.05.014-.52.026-1.203.034-2.052l.026-1.782.028-.998.057-.63-.701.042-.772-.043.056.645.027.983.028 1.768V21a9.55 9.55 0 01-.15 1.59 3.698 3.698 0 01-.37 1.119 2.29 2.29 0 01-.91.952c-.377.208-.83.31-1.363.31-.503-.007-.935-.091-1.29-.257a2.09 2.09 0 01-.872-.754 2.975 2.975 0 01-.257-.507 2.67 2.67 0 01-.15-.615A10.429 10.429 0 0181.427 21l.014-1.811.043-1.84.032-1.008zm9.865-.589l-1.178-.043.042.8.028 1.136.029 1.74-.015 2.905-.014 1.447-.028 1.277-.042.884 1.236-.026 1.135.026-.07-.897a10.23 10.23 0 01-.045-.61 21.843 21.843 0 01-.012-.696v-1.404l.013-.982.648.982.897 1.404a31.59 31.59 0 01.9 1.418l.449.785 1.46-.026 1.417.026-.603-.8-1.038-1.515-1.573-2.287-.856-1.333.533-.633 1.404-1.558 1.108-1.193.856-.87-.995.042-.94-.043-.562.828a13.41 13.41 0 01-.544.74c-.245.308-.494.614-.746.916l-.94 1.165-.885.985V19.33l.056-1.671.013-1.136.057-.813-1.195.041z"
        fill="#846D41"></path>
      <path
        d="M42.196 28.05l-.573-.02.02.388.014.553.014.847-.007 1.412-.008.702-.013.621-.02.43.6-.013.554.013-.035-.436a3.862 3.862 0 01-.02-.295 12.745 12.745 0 01-.007-.34v-.682l.007-.478.314.478.436.683a12.015 12.015 0 01.436.689l.22.381.709-.013.69.013-.294-.387-.506-.738-.762-1.112-.416-.647.259-.308.683-.757.538-.58.415-.422-.484.019-.457-.02-.274.401a6.913 6.913 0 01-.264.36c-.12.15-.24.298-.363.446l-.458.565-.43.478v-.493l.026-.811.008-.553.028-.395-.58.02zm9.408 4.414l-.259.52.39-.014.367.013.144-.496a16.69 16.69 0 01.205-.615l.117-.306.368-.042a1.96 1.96 0 01.206-.012l.266-.001c.1 0 .19.001.273.006.083.001.154.004.212.009l.383.04.102.316.226.62.144.484.6-.013.69.013-.26-.532a44.888 44.888 0 01-1.27-3.03l-.334-.907-.178-.484-.313.02-.253-.02-.171.484-.355.92c-.216.54-.438 1.077-.666 1.611-.207.473-.416.946-.634 1.416zm1.181-1.468l.116-.28.347-.879.172-.41.164.41.355.88.117.28-.233.033c-.054.008-.11.01-.17.012-.06.003-.122.003-.19.003-.145 0-.289-.006-.43-.02l-.248-.029zM64.233 28.5h.342l-.314.574-.6 1.058-.757 1.29a35.01 35.01 0 01-.383.64c-.117.186-.22.347-.313.479l-.225.327.075.156.695-.047c.113-.005.227-.006.339-.006l.501-.001a159.73 159.73 0 011.937.026l.478.028-.021-.327.02-.362-.286.064a1.69 1.69 0 01-.198.038 2.375 2.375 0 01-.333.039 9.482 9.482 0 01-.46.016 21.418 21.418 0 01-.881.02l-.349-.007.302-.56.6-1.051.683-1.174.689-1.127.274-.444-.061-.155-.764.027c-.478.013-.963.02-1.454.02-.443.008-.8 0-1.064-.02l-.423-.027.013.259-.013.308.41-.02.811-.03.73-.011zm8.59-.45l-.737-.019.232.374c.074.119.147.238.217.358.066.111.125.216.18.31l.66 1.277.314.58v1.016l-.021.6-.027.437.586-.013.568.013-.043-.416a10.104 10.104 0 01-.015-1.045c.001-.087.004-.158.007-.216l.05-.377.284-.627.65-1.27c.084-.17.155-.31.211-.418a1.64 1.64 0 01.13-.223l.225-.361-.389.019-.383-.02-.13.348c-.044.121-.087.238-.129.345a4.09 4.09 0 01-.122.29c-.05.112-.1.232-.159.359l-.19.405-.281.56-.28-.547c-.068-.13-.134-.26-.198-.392a6.712 6.712 0 01-.156-.352 9.424 9.424 0 01-.287-.666l-.13-.348-.638.02zm9.953 4.648l-.014.285.32-.013.293.013-.021-.293c-.015-.24-.02-.588-.02-1.044l-.014-1.066.006-.75.013-.288.37.402.838.908a37.976 37.976 0 011.269 1.404c.1.118.198.236.293.357l.288.368.349-.013.313.013-.015-.375v-.736l.008-1.35.02-1.429.027-.757v-.306l-.307.02-.302-.02.013.368.02.791.029.888.013.792.014.627-.363-.367a33.76 33.76 0 01-.813-.873l-.825-.9c-.185-.206-.34-.382-.471-.529a17.556 17.556 0 01-.306-.36l-.335-.435-.355.019-.353-.02.02.458.033.71.006 1.153-.013 1.304c-.009.195-.016.39-.02.585 0 .173-.004.325-.008.459zm11.018-.233l-.259.52.389-.014.368.013.144-.496a16.69 16.69 0 01.205-.615l.115-.306.369-.042c.059-.007.127-.01.205-.012l.266-.001c.1 0 .191.001.274.006.083.001.154.004.211.009l.383.04.102.316.226.62.142.484.6-.013.69.013-.26-.532a44.175 44.175 0 01-1.27-3.03l-.332-.907-.179-.484-.313.02-.253-.02-.17.484-.355.92a80.393 80.393 0 01-.665 1.611c-.206.473-.417.946-.633 1.416zm1.181-1.468l.116-.28.349-.879.171-.41.164.41.355.88.115.28-.23.033a1.6 1.6 0 01-.172.012c-.06.003-.123.003-.192.003-.155 0-.3-.007-.43-.02l-.246-.029z"
        fill="#123258"></path>
    </g>
    <defs>
      <clipPath id="clip0">
        <path fill="#fff" d="M0 0h98.23v44H0z"></path>
      </clipPath>
    </defs>
  </symbol>
  <symbol fill="none" xmlns="http://www.w3.org/2000/svg" viewBox="0 0 108 40" id="tender3">
    <path fill-rule="evenodd" clip-rule="evenodd"
          d="M0 8.73h19.262l-2.52 2.317H2.29v26.636h28.845v-9.575l2.29-2.09V40H0V8.73z" fill="#01559E"></path>
    <path fill-rule="evenodd" clip-rule="evenodd" d="M7.1 27.491l26.325-24.13V0L3.777 27.491H7.1z"
          fill="url(#paint0_linear)"></path>
    <path fill-rule="evenodd" clip-rule="evenodd" d="M17.303 27.491L33.425 12.72V9.359L13.98 27.49h3.322z"
          fill="#01559E"></path>
    <path fill-rule="evenodd" clip-rule="evenodd" d="M27.165 27.491l6.26-5.737v-3.356l-9.6 9.093h3.34z"
          fill="#00AFEF"></path>
    <path
      d="M8.053 31.22H6.977v1.105c0 .768.048 1.488.107 2.024h-.016a19.67 19.67 0 00-.712-1.472l-.91-1.656H4.169v4.633h1.075v-1.137c0-.828-.032-1.532-.058-2.073h.032c.182.476.487 1.072.727 1.521l.926 1.689h1.183V31.22zm3.456 0h-1.504L8.61 35.855h1.215l.289-1.088h1.198l.321 1.088h1.23L11.51 31.22zm-1.257 2.761l.24-.936c.06-.26.15-.693.214-.97h.016c.075.277.15.694.23.97l.23.936h-.93zm3.247 1.846a9.5 9.5 0 001.15.06c.91 0 1.622-.169 2.077-.52.438-.325.834-.92.834-1.916 0-.845-.305-1.43-.802-1.797-.439-.309-1.017-.46-1.878-.46-.53 0-1.017.048-1.38.108v4.525zm1.183-3.778c.09-.017.198-.033.364-.033.76 0 1.257.477 1.257 1.44 0 1.137-.546 1.597-1.332 1.597-.091 0-.214 0-.29-.017V32.05zm6.522 2.917H19.46v-3.745h-1.183v4.633h2.927v-.888zm2.2-2.55c-1.05 0-1.82.645-1.82 1.765 0 1.088.728 1.732 1.776 1.732.835 0 1.803-.46 1.803-1.764-.005-1.007-.668-1.732-1.76-1.732zm.545 1.755c0 .535-.182.98-.578.98-.396 0-.594-.428-.594-.98 0-.477.15-.98.594-.98.412-.006.578.47.578.98zm5.094.736a2.73 2.73 0 01-.76.108c-.85 0-1.38-.509-1.38-1.456 0-1.045.62-1.505 1.38-1.505.331 0 .578.06.76.14l.214-.86c-.15-.06-.514-.168-1.05-.168-1.347 0-2.562.796-2.562 2.442 0 1.288.787 2.316 2.44 2.316.514 0 .925-.092 1.107-.168l-.15-.85zm24.264-18.95h-2.76v2.836c0 1.965.106 3.838.256 5.218h-.027c-.503-1.196-1.241-2.734-1.851-3.79l-2.306-4.264h-3.29v11.908h2.76v-2.918c0-2.132-.075-3.956-.15-5.337H46a39.556 39.556 0 001.893 3.93l2.35 4.325h3.065V15.957zm8.951 0h-3.91l-3.564 11.908h3.108l.744-2.76h3.109l.786 2.76h3.184l-3.457-11.908zm-3.263 7.085l.62-2.393c.15-.676.38-1.764.546-2.5h.048c.166.736.396 1.797.578 2.5l.594 2.393h-2.386zm8.357 4.758c.653.075 1.653.168 2.959.168 2.349 0 4.184-.428 5.399-1.337 1.107-.845 2.108-2.41 2.108-4.959 0-2.18-.744-3.696-2.06-4.633-1.14-.785-2.611-1.164-4.837-1.164-1.348 0-2.622.109-3.564.244V27.8h-.005zm3.066-9.743c.214-.049.514-.076.958-.076 1.942 0 3.231 1.245 3.231 3.713 0 2.945-1.439 4.14-3.44 4.125-.24 0-.546 0-.744-.033v-7.73h-.005zm16.8 7.518H82.73v-9.618h-3.076v11.908h7.566v-2.29zm5.677-6.55c-2.701 0-4.703 1.64-4.703 4.558 0 2.793 1.878 4.466 4.597 4.466 2.156 0 4.628-1.197 4.628-4.574-.006-2.609-1.702-4.45-4.522-4.45zm1.408 4.493c0 1.397-.471 2.55-1.472 2.55-1.048 0-1.53-1.088-1.53-2.55 0-1.196.38-2.533 1.53-2.533 1.049.006 1.472 1.261 1.472 2.533zm13.151 1.922c-.471.151-1.257.276-1.958.276-2.183 0-3.596-1.305-3.596-3.773 0-2.685 1.638-3.865 3.58-3.865.851 0 1.503.168 1.958.352l.562-2.192c-.396-.184-1.332-.428-2.702-.428-3.473 0-6.63 2.009-6.63 6.29 0 3.296 2.034 5.938 6.309 5.938 1.332 0 2.381-.233 2.852-.417l-.375-2.181z"
      fill="#01559E"></path>
    <defs>
      <linearGradient id="paint0_linear" x1="5.145" y1="28.666" x2="33.841" y2=".299" gradientUnits="userSpaceOnUse">
        <stop offset="" stop-color="#E2A950"></stop>
        <stop offset=".259" stop-color="#E8B667"></stop>
        <stop offset=".502" stop-color="#FFE3B5"></stop>
        <stop offset=".769" stop-color="#EBBB6F"></stop>
        <stop offset="1" stop-color="#E2A950"></stop>
      </linearGradient>
    </defs>
  </symbol>
  <symbol fill="none" xmlns="http://www.w3.org/2000/svg" viewBox="0 0 223 48" id="tender4">
    <g clip-path="url(#clip0)">
      <path
        d="M31.18 6.042v11.075l4.608 4.62-4.607 4.62v6.589H24.66l-4.606 4.619-4.66-4.62H8.821v-6.588l-4.607-4.62 4.607-4.62V6.047a19.167 19.167 0 00-5.463 6.294 18.864 18.864 0 00-2.27 8.992 18.94 18.94 0 005.543 13.41A18.828 18.828 0 0020 40.299c5.22 0 9.948-2.125 13.37-5.556a18.936 18.936 0 005.543-13.41l.002-.002a18.571 18.571 0 00-2.235-8.993 19.014 19.014 0 00-5.5-6.296zm-1.087 11.297V4.004l.839.548a20.128 20.128 0 016.704 7.272A19.633 19.633 0 0140 21.333a20.005 20.005 0 01-5.859 14.174c-3.621 3.632-8.622 5.88-14.14 5.88-5.516 0-10.517-2.248-14.138-5.88A20.016 20.016 0 010 21.333c0-3.437.872-6.675 2.402-9.506a20.256 20.256 0 016.666-7.272L9.909 4v13.562l-4.164 4.175 4.164 4.175v5.946h5.928l4.212 4.175 4.165-4.175h5.879v-5.946l4.164-4.175-4.164-4.175v-.223z"
        fill="#D8AA16"></path>
      <path fill-rule="evenodd" clip-rule="evenodd"
            d="M7.248 9.606A17.436 17.436 0 002.712 20.98l4.536-4.55V9.607zm25.556 0v6.824l4.537 4.549c-.101-4.398-1.815-8.34-4.537-11.373zM7.248 27.044l-4.486-4.498a17.321 17.321 0 004.486 10.563v-6.065zm7.46 7.531H8.76c2.773 2.376 6.25 3.892 10.082 4.145l-4.134-4.145zm18.096-7.531v6.015a17.32 17.32 0 004.487-10.564l-4.487 4.55zm-7.51 7.531L21.16 38.72a17.05 17.05 0 0010.082-4.145h-5.948z"
            fill="#026B33"></path>
      <path
        d="M20 29.512a8.12 8.12 0 005.768-2.394 8.167 8.167 0 002.389-5.785c0-2.26-.913-4.306-2.389-5.785a8.12 8.12 0 00-5.767-2.395 8.12 8.12 0 00-5.768 2.394 8.166 8.166 0 00-2.388 5.786 8.17 8.17 0 002.388 5.785 8.12 8.12 0 005.768 2.394zm6.28-1.884A8.844 8.844 0 0120 30.237a8.843 8.843 0 01-6.279-2.61 8.89 8.89 0 01-2.601-6.294c0-2.457.994-4.684 2.601-6.295a8.842 8.842 0 016.28-2.61c2.451 0 4.672.997 6.28 2.61a8.887 8.887 0 012.601 6.295 8.888 8.888 0 01-2.601 6.295z"
        fill="#D8AA16"></path>
      <path d="M20.364 25.123v4.751h-.726v-4.75h.726zm0-12.333v4.802h-.726v-4.801h.726z" fill="#D8AA16"></path>
      <path
        d="M27.08 17.241a31.525 31.525 0 01-3.237.48 39.02 39.02 0 01-3.792.183c-1.325 0-2.611-.063-3.83-.182a30.059 30.059 0 01-3.2-.48 8.576 8.576 0 00-.812 1.886 7.867 7.867 0 00-.314 2.205c0 .797.107 1.555.314 2.267.188.643.458 1.253.806 1.825a31.64 31.64 0 013.244-.482c1.22-.12 2.492-.182 3.792-.182 1.326 0 2.612.063 3.83.183 1.144.111 2.218.273 3.201.478a8.586 8.586 0 00.811-1.885c.202-.694.314-1.43.314-2.204a7.86 7.86 0 00-.314-2.205 8.572 8.572 0 00-.812-1.887zm-3.308-.238a30.5 30.5 0 003.412-.523l.25-.053.134.219a9.384 9.384 0 011.019 2.281 8.6 8.6 0 01.346 2.406 8.59 8.59 0 01-.346 2.405 9.385 9.385 0 01-1.019 2.281l-.135.221-.251-.055a28.943 28.943 0 00-3.37-.522 38.598 38.598 0 00-3.76-.177c-1.295 0-2.544.06-3.722.176a30.494 30.494 0 00-3.411.523l-.242.052-.137-.21a8.326 8.326 0 01-1.024-2.226 8.796 8.796 0 01-.346-2.468c0-.837.123-1.642.346-2.406a9.372 9.372 0 011.019-2.281l.135-.221.251.055c1.035.228 2.168.405 3.371.523 1.18.115 2.44.176 3.76.176a38.1 38.1 0 003.72-.176z"
        fill="#D8AA16"></path>
      <path
        d="M20 17.23c.639 0 1.265-.013 1.86-.043.464-.024.92-.058 1.361-.106-.341-1.17-.809-2.149-1.363-2.841-.552-.69-1.185-1.087-1.857-1.087-.672 0-1.306.397-1.857 1.087-.552.69-1.018 1.663-1.359 2.827.454.038.913.074 1.36.101.601.037 1.223.062 1.856.062zm1.897.68c-.64.032-1.274.045-1.896.045-.627 0-1.266-.026-1.899-.065-.646-.04-1.244-.09-1.812-.139l-.426-.037.108-.415c.372-1.441.928-2.658 1.609-3.51.69-.863 1.514-1.36 2.42-1.36.906 0 1.73.497 2.42 1.36.681.852 1.237 2.069 1.61 3.51l.102.396-.405.053c-.591.078-1.206.13-1.83.161zm-1.896 7.576c-.638 0-1.264.012-1.86.043a23.36 23.36 0 00-1.36.106c.342 1.17.809 2.148 1.363 2.841.551.689 1.185 1.086 1.857 1.086.672 0 1.305-.397 1.857-1.086.554-.693 1.022-1.672 1.363-2.842a23.4 23.4 0 00-1.342-.105 37.096 37.096 0 00-1.878-.043zm-1.896-.68c.64-.032 1.274-.045 1.896-.045.647 0 1.282.013 1.915.046.619.032 1.22.083 1.812.16l.405.053-.102.396c-.373 1.442-.929 2.66-1.61 3.51-.69.864-1.514 1.362-2.42 1.362-.906 0-1.73-.498-2.42-1.362-.681-.85-1.237-2.068-1.61-3.51l-.102-.396.405-.053a23.585 23.585 0 011.83-.16z"
        fill="#D8AA16"></path>
      <path
        d="M14.084 23.714V19.1h1.732c.352 0 .634.046.848.14.212.094.379.237.5.432.12.193.18.396.18.609 0 .196-.053.382-.16.556a1.142 1.142 0 01-.483.422 1.2 1.2 0 01.644.419c.15.197.225.43.225.698 0 .217-.046.418-.137.604a1.166 1.166 0 01-.339.429c-.134.1-.303.176-.504.228a3.1 3.1 0 01-.745.077h-1.76zm.612-2.674h.998c.27 0 .465-.018.582-.054a.645.645 0 00.351-.23.667.667 0 00.119-.404.735.735 0 00-.111-.405.556.556 0 00-.315-.24c-.136-.044-.37-.065-.701-.065h-.923v1.398zm0 2.133h1.15c.197 0 .335-.008.416-.023a.987.987 0 00.352-.125.67.67 0 00.233-.258.803.803 0 00.092-.39.766.766 0 00-.133-.45.694.694 0 00-.368-.268c-.155-.052-.381-.078-.674-.078h-1.068v1.592zm3.512-.941l.574-.051c.026.231.09.421.19.57.1.15.254.27.464.362.209.091.445.137.707.137.233 0 .439-.034.617-.104a.858.858 0 00.397-.287.665.665 0 00.131-.395.6.6 0 00-.125-.378c-.084-.107-.223-.198-.416-.272a8.567 8.567 0 00-.822-.224c-.424-.102-.72-.198-.89-.288a1.248 1.248 0 01-.49-.43 1.052 1.052 0 01-.163-.575c0-.234.067-.452.199-.654a1.22 1.22 0 01.579-.462 2.19 2.19 0 01.846-.158c.341 0 .643.055.904.166.261.109.462.271.603.486.14.214.216.456.226.727l-.586.045c-.031-.29-.137-.511-.32-.66-.18-.149-.449-.223-.803-.223-.37 0-.64.068-.808.203-.169.136-.254.299-.254.49 0 .165.06.302.18.41.118.106.424.216.92.328.496.113.837.21 1.021.294.268.124.466.28.595.47.127.188.19.406.19.653 0 .246-.07.476-.21.693-.14.217-.341.386-.605.506-.263.12-.558.18-.888.18-.416 0-.765-.06-1.047-.182a1.455 1.455 0 01-.662-.549 1.549 1.549 0 01-.254-.828zm4.472 1.482V19.1h1.731c.352 0 .635.046.849.14.212.094.379.237.499.432.121.193.181.396.181.609 0 .196-.053.382-.16.556a1.144 1.144 0 01-.483.422c.28.082.494.221.643.419.15.197.226.43.226.698 0 .217-.046.418-.137.604a1.168 1.168 0 01-.339.429c-.134.1-.303.176-.504.228a3.082 3.082 0 01-.746.077h-1.76zm.612-2.674h.998c.27 0 .465-.018.582-.054a.645.645 0 00.351-.23.667.667 0 00.118-.404.735.735 0 00-.11-.405.556.556 0 00-.315-.24c-.136-.044-.37-.065-.701-.065h-.923v1.398zm0 2.133h1.15c.197 0 .335-.008.416-.023a.986.986 0 00.352-.125.671.671 0 00.233-.258.803.803 0 00.092-.39.765.765 0 00-.134-.45.694.694 0 00-.367-.268c-.155-.052-.381-.078-.674-.078h-1.068v1.592z"
        fill="#026B33"></path>
    </g>
    <path
      d="M54.844 8.727c0-.51-.193-.917-.578-1.22-.386-.301-.91-.452-1.57-.452-.568 0-1.042.15-1.423.453a1.4 1.4 0 00-.57 1.156h-1.969c0-.62.172-1.172.516-1.656.344-.485.82-.86 1.43-1.125a4.908 4.908 0 012.015-.406c1.302 0 2.313.283 3.032.851.724.568 1.086 1.362 1.086 2.383 0 .516-.157.99-.47 1.422-.312.432-.75.773-1.312 1.023.636.219 1.12.552 1.453 1 .339.443.508.995.508 1.656 0 1.021-.39 1.834-1.172 2.438-.78.599-1.823.898-3.125.898-.802 0-1.528-.143-2.18-.43-.645-.286-1.132-.676-1.46-1.171-.323-.495-.485-1.063-.485-1.703h1.97c0 .49.202.903.608 1.242.407.333.922.5 1.547.5.698 0 1.258-.164 1.68-.492.427-.328.64-.755.64-1.281 0-.641-.187-1.105-.562-1.391-.37-.292-.914-.438-1.633-.438h-1.336v-1.562h1.266c1.396 0 2.094-.565 2.094-1.695zM63.695 17c-.083-.162-.156-.424-.218-.79a2.955 2.955 0 01-2.22.946c-.848 0-1.54-.242-2.077-.726-.537-.485-.805-1.084-.805-1.797 0-.901.333-1.591 1-2.07.672-.485 1.63-.727 2.875-.727h1.164v-.555c0-.437-.122-.786-.367-1.047-.245-.265-.617-.398-1.117-.398-.433 0-.787.11-1.063.328a.993.993 0 00-.414.82h-1.898c0-.463.153-.896.46-1.296.308-.407.725-.724 1.25-.954a4.433 4.433 0 011.774-.343c.99 0 1.779.25 2.367.75.589.494.89 1.192.906 2.093v3.813c0 .76.107 1.367.32 1.82V17h-1.937zm-2.086-1.367c.375 0 .727-.091 1.055-.274.333-.182.583-.427.75-.734v-1.594h-1.023c-.703 0-1.232.123-1.586.367-.355.245-.532.592-.532 1.04 0 .364.12.656.36.874.245.214.57.32.976.32zm8.696-1.977h-.961V17h-1.899V8.547h1.899v3.375h.836l2.336-3.375h2.343l-3.054 4.047L75.117 17h-2.469l-2.343-3.344zm8.812.625l1.719-5.734h2.023L79.5 18.28c-.516 1.422-1.39 2.133-2.625 2.133a3.4 3.4 0 01-.914-.14v-1.47l.36.024c.478 0 .838-.088 1.077-.265.245-.172.438-.464.579-.875l.273-.727-2.969-8.414h2.047l1.79 5.734zM91.125 17h-1.898v-6.922H85.93V17h-1.9V8.547h7.094V17zm5.023-3.344h-.96V17h-1.899V8.547h1.898v3.375h.836l2.336-3.375h2.344l-3.055 4.047L100.961 17h-2.469l-2.344-3.344zm11.133-5.11h1.891V17h-1.891v-5.64L103.969 17h-1.891V8.547h1.891v5.64l3.312-5.64zM58.187 41H56.22v-5.055h-5.086V41h-1.977V29.625h1.977v4.734h5.086v-4.734h1.968V41zm7.211 0c-.083-.161-.156-.425-.218-.79a2.955 2.955 0 01-2.22.946c-.848 0-1.54-.242-2.077-.726-.537-.485-.805-1.084-.805-1.797 0-.901.333-1.591 1-2.07.672-.485 1.63-.727 2.875-.727h1.164v-.555c0-.437-.122-.786-.367-1.047-.245-.265-.617-.398-1.117-.398-.433 0-.787.11-1.063.328a.993.993 0 00-.414.82h-1.898c0-.463.153-.895.46-1.297.308-.406.725-.723 1.25-.953a4.431 4.431 0 011.774-.343c.99 0 1.779.25 2.367.75.589.494.891 1.192.907 2.093v3.813c0 .76.106 1.367.32 1.82V41h-1.938zm-2.085-1.367a2.13 2.13 0 001.054-.274c.334-.182.584-.427.75-.734v-1.594h-1.023c-.703 0-1.232.123-1.586.367-.354.245-.531.592-.531 1.04 0 .364.12.656.359.874.245.214.57.32.977.32zm5.765-7.086h1.899v6.937h3.296v-6.937h1.899v6.937h1.148l-.156 4.024h-1.727V41h-6.359v-8.453zm14.86 0h1.89V41h-1.89v-5.64L80.624 41h-1.89v-8.453h1.89v5.64l3.313-5.64zm3.554 4.148c0-.828.164-1.573.492-2.234.329-.667.79-1.177 1.383-1.531.594-.36 1.276-.54 2.047-.54 1.14 0 2.065.368 2.773 1.102.714.735 1.1 1.709 1.157 2.922l.008.445c0 .834-.162 1.578-.485 2.235a3.52 3.52 0 01-1.375 1.523c-.594.36-1.281.54-2.062.54-1.193 0-2.149-.397-2.868-1.188-.713-.797-1.07-1.857-1.07-3.18v-.094zm1.899.164c0 .87.18 1.552.539 2.047.36.49.86.735 1.5.735s1.138-.25 1.492-.75c.36-.5.539-1.232.539-2.196 0-.854-.185-1.53-.555-2.03-.364-.5-.862-.75-1.492-.75-.62 0-1.112.246-1.477.741-.364.49-.546 1.224-.546 2.203zM104.117 41h-1.898v-3.414h-3.29V41h-1.898v-8.453h1.899v3.523h3.289v-3.523h1.898V41zm7.078 0c-.083-.161-.156-.425-.218-.79a2.957 2.957 0 01-2.219.946c-.849 0-1.542-.242-2.078-.726-.537-.485-.805-1.084-.805-1.797 0-.901.333-1.591 1-2.07.672-.485 1.63-.727 2.875-.727h1.164v-.555c0-.437-.122-.786-.367-1.047-.245-.265-.617-.398-1.117-.398-.433 0-.787.11-1.063.328a.993.993 0 00-.414.82h-1.898c0-.463.153-.895.461-1.297.307-.406.724-.723 1.25-.953a4.43 4.43 0 011.773-.343c.99 0 1.779.25 2.367.75.589.494.891 1.192.906 2.093v3.813c0 .76.107 1.367.321 1.82V41h-1.938zm-2.086-1.367c.375 0 .727-.091 1.055-.274.333-.182.583-.427.75-.734v-1.594h-1.023c-.703 0-1.232.123-1.586.367-.354.245-.532.592-.532 1.04 0 .364.12.656.36.874.245.214.57.32.976.32zm12.875-7.086V41h-1.898v-6.922h-2.391l-.156 2.945c-.099 1.417-.372 2.435-.82 3.055-.443.615-1.123.922-2.039.922h-.586l-.008-1.578.391-.04c.416-.056.718-.31.906-.757.193-.453.315-1.276.367-2.469l.156-3.61h6.078zm4.063 2.687h1.859c.693 0 1.297.12 1.813.36.515.24.906.575 1.172 1.008.27.432.406.934.406 1.507 0 .87-.307 1.568-.922 2.094-.615.526-1.432.792-2.453.797h-3.774v-8.453h1.899v2.687zm0 1.524v2.726h1.851c.464 0 .829-.114 1.094-.343.271-.235.406-.566.406-.993 0-.427-.132-.763-.398-1.007-.26-.25-.615-.378-1.062-.383h-1.891zM139.977 41h-1.899v-3.414h-3.289V41h-1.898v-8.453h1.898v3.523h3.289v-3.523h1.899V41zm1.671-4.305c0-.828.164-1.573.493-2.234.328-.667.789-1.177 1.382-1.531.594-.36 1.276-.54 2.047-.54 1.141 0 2.065.368 2.774 1.102.713.735 1.099 1.709 1.156 2.922l.008.445c0 .834-.162 1.578-.485 2.235a3.515 3.515 0 01-1.375 1.523c-.593.36-1.281.54-2.062.54-1.193 0-2.148-.397-2.867-1.188-.714-.797-1.071-1.857-1.071-3.18v-.094zm1.899.164c0 .87.18 1.552.539 2.047.359.49.859.735 1.5.735s1.138-.25 1.492-.75c.36-.5.539-1.232.539-2.196 0-.854-.185-1.53-.555-2.03-.364-.5-.861-.75-1.492-.75-.619 0-1.112.246-1.476.741-.365.49-.547 1.224-.547 2.203zm13.195-2.78h-3.672V41h-1.89v-8.453h5.562v1.531zm.563 2.616c0-.828.164-1.573.492-2.234.328-.667.789-1.177 1.383-1.531.593-.36 1.276-.54 2.047-.54 1.14 0 2.065.368 2.773 1.102.714.735 1.099 1.709 1.156 2.922l.008.445c0 .834-.161 1.578-.484 2.235a3.521 3.521 0 01-1.375 1.523c-.594.36-1.282.54-2.063.54-1.193 0-2.148-.397-2.867-1.188-.714-.797-1.07-1.857-1.07-3.18v-.094zm1.898.164c0 .87.18 1.552.539 2.047.36.49.86.735 1.5.735.641 0 1.138-.25 1.492-.75.36-.5.539-1.232.539-2.196 0-.854-.184-1.53-.554-2.03-.365-.5-.862-.75-1.492-.75-.62 0-1.112.246-1.477.741-.365.49-.547 1.224-.547 2.203zm18.922-5.64h-5.242v2.758h2.328c.833 0 1.56.143 2.18.43.619.286 1.091.692 1.414 1.218.323.526.484 1.135.484 1.828 0 1.063-.362 1.917-1.086 2.563-.719.645-1.7.974-2.945.984h-4.352V29.625h7.219v1.594zm-5.242 4.343v3.86h2.32c.667 0 1.185-.18 1.555-.54.375-.364.562-.846.562-1.444 0-.573-.182-1.027-.547-1.36-.364-.333-.869-.505-1.515-.516h-2.375zM185.867 41c-.083-.161-.156-.425-.219-.79a2.953 2.953 0 01-2.218.946c-.849 0-1.542-.242-2.078-.726-.537-.485-.805-1.084-.805-1.797 0-.901.333-1.591 1-2.07.672-.485 1.63-.727 2.875-.727h1.164v-.555c0-.437-.122-.786-.367-1.047-.245-.265-.617-.398-1.117-.398-.433 0-.787.11-1.063.328a.993.993 0 00-.414.82h-1.898c0-.463.153-.895.461-1.297.307-.406.723-.723 1.25-.953a4.43 4.43 0 011.773-.343c.99 0 1.779.25 2.367.75.589.494.891 1.192.906 2.093v3.813c0 .76.107 1.367.321 1.82V41h-1.938zm-2.086-1.367c.375 0 .727-.091 1.055-.274.333-.182.583-.427.75-.734v-1.594h-1.024c-.703 0-1.231.123-1.585.367-.355.245-.532.592-.532 1.04 0 .364.12.656.36.874.244.214.57.32.976.32zM196.633 41h-1.899v-3.414h-3.289V41h-1.898v-8.453h1.898v3.523h3.289v-3.523h1.899V41zm5.031-3.344h-.961V41h-1.898v-8.453h1.898v3.375h.836l2.336-3.375h2.344l-3.055 4.047L206.477 41h-2.469l-2.344-3.344zM212.57 41c-.083-.161-.156-.425-.218-.79a2.957 2.957 0 01-2.219.946c-.849 0-1.542-.242-2.078-.726-.537-.485-.805-1.084-.805-1.797 0-.901.333-1.591 1-2.07.672-.485 1.63-.727 2.875-.727h1.164v-.555c0-.437-.122-.786-.367-1.047-.245-.265-.617-.398-1.117-.398-.433 0-.787.11-1.063.328a.993.993 0 00-.414.82h-1.898c0-.463.153-.895.461-1.297.307-.406.724-.723 1.25-.953a4.43 4.43 0 011.773-.343c.99 0 1.779.25 2.367.75.589.494.891 1.192.907 2.093v3.813c0 .76.106 1.367.32 1.82V41h-1.938zm-2.086-1.367c.375 0 .727-.091 1.055-.274.333-.182.583-.427.75-.734v-1.594h-1.023c-.704 0-1.232.123-1.586.367-.354.245-.532.592-.532 1.04 0 .364.12.656.36.874.245.214.57.32.976.32z"
      fill="#026B33"></path>
    <defs>
      <clipPath id="clip0">
        <path fill="#fff" transform="translate(0 4)" d="M0 0h40v37.387H0z"></path>
      </clipPath>
    </defs>
  </symbol>
  <symbol fill="none" xmlns="http://www.w3.org/2000/svg" viewBox="0 0 134 30" id="tender5">
    <g clip-path="url(#clip0)">
      <path
        d="M21.951 8.78a4.394 4.394 0 004.39-4.39A4.394 4.394 0 0021.951 0H4.391A4.394 4.394 0 000 4.39v21.22A4.394 4.394 0 004.39 30h17.561a4.394 4.394 0 004.39-4.39 4.394 4.394 0 00-4.39-4.39H8.781v-1.83h7.858a4.394 4.394 0 004.39-4.39 4.394 4.394 0 00-4.39-4.39H8.78V8.78h13.171zM48.293 0H31.639a4.394 4.394 0 00-4.39 4.39 4.394 4.394 0 004.39 4.39h3.937v16.83a4.394 4.394 0 004.39 4.39 4.394 4.394 0 004.39-4.39V8.78h3.937a4.394 4.394 0 004.39-4.39A4.394 4.394 0 0048.293 0zm19.653 10.61H62.54a.915.915 0 010-1.83h10.712a4.394 4.394 0 004.39-4.39A4.394 4.394 0 0073.251 0H62.54c-5.349 0-9.695 4.346-9.695 9.695s4.354 9.695 9.695 9.695h5.407a.915.915 0 010 1.83H57.234a4.394 4.394 0 00-4.39 4.39 4.394 4.394 0 004.39 4.39h10.712c5.35 0 9.695-4.346 9.695-9.695s-4.346-9.695-9.695-9.695z"
        fill="#C51520"></path>
      <path
        d="M87.702 9.754h-1.595V1.368H83.24V0h7.332v1.368h-2.869v8.386zm9.878 0h-5.517V0h5.517v1.346h-3.92v2.656h3.673v1.332H93.66v3.059h3.921v1.36zm9.798 0h-1.602V5.356h-4.493v4.398h-1.595V0h1.595v3.988h4.493V0h1.602v9.754zm1.361-1.369h.754c.644-1.178 1.185-2.502 1.624-3.965a21.86 21.86 0 00.842-4.413h5.034v8.386h1.258v4.046h-1.536V9.754h-6.447v2.685h-1.536V8.385h.007zm4.544-7.002c-.095 1.01-.344 2.18-.746 3.512-.403 1.332-.857 2.495-1.369 3.49h4.222V1.383h-2.107zm12.058 8.371h-5.517V0h5.517v1.346h-3.922v2.656h3.674v1.332h-3.674v3.059h3.922v1.36zm8.561-6.805c0 1.017-.336 1.8-1.002 2.341-.666.542-1.617.812-2.846.812h-1.017v3.652h-1.596V0h2.81c1.222 0 2.129.249 2.737.746.614.498.914 1.23.914 2.203zm-4.865 1.814h.848c.82 0 1.42-.139 1.8-.424.381-.285.571-.732.571-1.332 0-.563-.168-.98-.512-1.25-.344-.279-.878-.418-1.603-.418h-1.104v3.424z"
        fill="#333"></path>
    </g>
    <defs>
      <clipPath id="clip0">
        <path fill="#fff" d="M0 0h133.902v30H0z"></path>
      </clipPath>
    </defs>
  </symbol>
  <symbol fill="none" xmlns="http://www.w3.org/2000/svg" viewBox="0 0 40 46" id="tender6">
    <g clip-path="url(#clip0)" fill-rule="evenodd" clip-rule="evenodd">
      <path
        d="M24.734 11.803c0-2.05-.011-4.095-.017-6.141 0-.48-.032-.965-.032-1.447 0-1.15.124-2.439 1.003-3.286 1.55-1.494 4.641-1.159 5.645.815.308.604.367 1.494.4 2.168.049.853.053 1.716.049 2.568 0 .75-.012 1.5-.021 2.25a67.75 67.75 0 00-.021 1.495c0 .447-.006.906.02 1.353 0 .044.007.103.012.168.183.017.373.02.562.027.2 0 .405.005.61.005v-6.62c0-.227-.012-.454-.018-.68-.021-1.133.02-2.283.75-3.221.33-.427.761-.739 1.256-.939A4.319 4.319 0 0136.87.042c1.689.156 2.892 1.327 3.065 3.038.021.238.027.492.033.73.011.344.011.69.017 1.03.005.896 0 1.785 0 2.682-.006 1.353-.027 2.703-.027 4.058 0 .632.011 1.257.027 1.889.011.497.02.997.011 1.494-.02 1.003-.15 1.997-.864 2.768-.977 1.059-2.51 1.085-3.836 1.08l-8.353-.018c-2.78-.005-6.092.356-8.36-1.602a5.36 5.36 0 01-.858-.95c-1.026-1.468-1.247-3.319-1.262-5.068-.011-.977.05-1.947.059-2.924 0-.227 0-.81-.059-1.17l-.168-.018c-.297-.02-.603-.027-.906-.032h-.15c-.006.77 0 1.544.006 2.315.011 1.288.026 2.579.032 3.873 0 .421.032.853.038 1.28.021 1.241-.118 2.573-1.1 3.465-1.565 1.414-4.495 1.073-5.527-.827-.323-.603-.382-1.511-.42-2.197a51.26 51.26 0 01-.05-2.59c0-.762.012-1.518.021-2.272.006-.502.021-.997.021-1.5 0-.441 0-.896-.027-1.338a1.76 1.76 0 00-.011-.162 5.902 5.902 0 00-.55-.02c-.215-.006-.427-.006-.642-.006a212.69 212.69 0 000 2.526c.006 1.353.027 2.714.027 4.074 0 .535.038 1.073.011 1.608-.032.771-.182 1.518-.632 2.165a3.1 3.1 0 01-1.35 1.08c-.96.399-2.293.387-3.238-.06-1.106-.53-1.682-1.538-1.797-2.741-.02-.276-.02-.571-.026-.853-.012-.48-.017-.965-.017-1.447C0 12.056 0 10.707 0 9.36c0-1.383.006-2.758.017-4.14.006-.48.012-.965.021-1.447.006-.28.006-.609.044-.885.13-.862.512-1.635 1.23-2.164.997-.745 2.19-.707 3.367-.707l8.352.018c2.779.005 6.065-.374 8.341 1.582.303.253.568.538.8.852 1.095 1.489 1.321 3.41 1.344 5.201.012.977-.044 1.948-.044 2.918 0 .233.006.804.065 1.166.059.005.108.011.15.017.303.02.604.026.907.032h.14z"
        fill="#282829"></path>
      <path
        d="M26.49 13.518c-.962 0-3.33.162-4.015-.248-1.85-1.111.697-7.824-2.233-10.327-1.727-1.479-4.592-1.155-7.215-1.16-2.785-.007-5.57-.013-8.353-.016-1.419 0-2.645-.077-2.86 1.382-.082.523-.091 11.612-.017 12.395.065.685.34 1.1.803 1.32.486.233 1.3.244 1.813.027 1.138-.48.896-1.867.896-3.238 0-1.494-.076-7.354.017-8.336 4.565 0 4.683-.362 4.683 3.265 0 1.306-.188 6.977.216 7.727.458.835 2.039 1.062 2.817.356.73-.659.486-2.32.486-3.442-.006-1.344-.086-7.068 0-7.906.976 0 3.226-.15 3.955.232 1.942 1.03-.723 7.748 2.245 10.322 1.711 1.483 4.591 1.17 7.215 1.176l8.353.018c3.535.011 2.915-.604 2.915-5.483 0-1.435.076-7.419-.018-8.327-.156-1.576-1.72-1.662-2.611-1.311-1.118.441-.891 1.947-.891 3.215v8.359c-4.603 0-4.7.345-4.7-3.291 0-1.339.194-6.897-.212-7.69-.453-.885-2.147-1.058-2.876-.35-.636.62-.438 2.418-.438 3.47.013 2.622.019 5.24.025 7.861z"
        fill="#FED400"></path>
      <path
        d="M0 23.842h39.958v-1.63H0v1.63zm2.439 20.94c2.3 0 1.808.259 2.206-.933l.733-2.197c.091-.276.312-.831.34-1.127h.142c.02.297.21.75.308 1.086l.847 2.708c.189.615-.038.465 2.05.465.26 0 .27-.35.427-.832.108-.318.194-.582.302-.956.097-.34.212-.647.309-.944l1.544-4.942h-2.09c-.313 1.339-1.091 3.486-1.398 4.813-.188-.28-1.462-4.657-1.462-4.813H5.024c-.092.394-.26.804-.394 1.21l-1.215 3.603c-.188-.81-1.247-4.377-1.252-4.813H0c.065.291.188.665.286.965l1.873 6.292c.053.211.042.415.28.415zM1.256 27.969c0 .556-.496 3.103-.62 3.847L0 35.642h2.024c.026-.312.102-.685.15-1.03l.474-3.29 1.744 4.32h.835l1.733-4.127c.05-.091.038-.07.082-.123l.561 4.252h2.024l-1.09-7.35c-.083-.529.096-.394-1.91-.394-.253 0-.33.442-.507.891l-1.235 3.157c-.206-.239-1.274-3.163-1.418-3.6-.2-.594-.038-.448-1.862-.448a1.078 1.078 0 00-.349.069z"
        fill="#1B1A16"></path>
      <path
        d="M13.739 41.081c0-.761.097-1.289.712-1.867 1.603-1.483 3.89-.082 3.89 1.45v.415c0 1.156-1.035 2.165-2.367 2.165-1.156.002-2.235-1.013-2.235-2.163zm2.515 4.61h-.756c-.486-.022-.524-.142-.583-.762-.064-.66-.13-.53-.615-.777-.544-.276-.55-.507-.868-.447-.432.081-.447.308-1.085.308-.059-.215-.135-.232-.27-.432-.194-.297-.535-.93-.567-1.312.215-.059.182-.091.388-.238.826-.57.447-.447.447-1.155 0-.486.27-.615-.156-.962-.123-.097-.226-.162-.367-.264-.13-.092-.244-.118-.244-.313 0-.382.739-1.602 1.042-1.602.09 0 .538.205.652.258.309.147.313.183.535.027.368-.253.594-.442 1.118-.567 0-.442.14-.706.14-1.182a4.651 4.651 0 012.024 0c.054.696.07 1.09.389 1.279.118.07.997.603 1.003.603.415 0 .8-.35 1.117-.35.28 0 .897 1.333.977 1.674-.097.135-.48.426-.642.544-.512.394-.135.335-.182.853l-.082.835c.33.221.567.47.906.697-.162.697-.632 1.224-.977 1.744-.211-.05-.426-.15-.668-.238-1.02-.344-.438.183-1.759.518l-.15 1.188c-.358.002-.385.072-.767.072z"
        fill="#FED400"></path>
      <path
        d="M24.342 40.525h-.35v-1.882c.388 0 .906-.027 1.203.194.457.333.684 1.688-.853 1.688zm-2.37 4.257h2.018v-2.86l1.424 2.133c.179.264.297.485.459.729h2.515l-1.171-1.553c-.227-.27-.389-.497-.604-.789-.205-.28-.42-.535-.6-.8 1.189-.275 1.813-1.358 1.63-2.46-.194-1.16-.917-2.072-2.185-2.072h-3.486v7.672zm-2.93-16.672v7.532h2.018v-3.205c.254.167.438.497.648.75.118.14.182.238.302.394.141.188.194.238.341.426l1.224 1.636h2.65c-.465-.691-3.173-3.73-3.28-4.112.438-.653 2.817-3.124 2.93-3.633h-1.953c-.604 0-.594.195-1.124.9l-.847 1.101c-.167.206-.27.335-.432.55-.085.124-.114.156-.205.28l-.254.309.006-2.515c.012-.777.232-.627-1.818-.627-.156.002-.206.052-.206.214zm10.183 16.672h2.024v-3.211c.146.102.211.21.33.367.635.874 1.614 1.991 2.179 2.844h2.58c-.065-.253-2.175-2.735-2.418-3.021-.238-.28-.712-.771-.788-1.095l2.18-2.627c.28-.335.511-.577.75-.929h-2.515c-.054.206-2.089 2.854-2.3 3v-3h-2.024v7.672h.002zM14.16 30.413c.178.253.755 2.165.767 2.3h-1.533c.183-.794.58-1.518.765-2.3zm-3.977 5.23h2.094c.097-.2.47-1.112.485-1.322h2.79a7.91 7.91 0 00.49 1.322h2.094l-2.735-7.448c-.097-.22-.097-.297-.406-.297-2.336 0-1.785-.232-2.212.859-.13.335-.243.641-.367.961l-1.883 4.878c-.097.241-.33.776-.35 1.047zM27.06 28.11v7.532h4.393V33.97h-2.16c-.323 0-.21-.394-.21-1.188 0-.156.049-.205.21-.205h2.024v-1.68h-2.233v-1.252h2.369c0-1.009.156-1.747-.206-1.747H27.27c-.16.001-.21.05-.21.213zm10.254 1.538V30.9h-.556v1.398h.556v3.344h1.744v-3.344h.906V30.9h-.906c0-1.812.356-1.462-1.533-1.462-.163-.002-.211.048-.211.21z"
        fill="#1B1A16"></path>
      <path
        d="M37.173 37.18v5.3c0 .162.05.212.211.212h1.674v-5.723h-1.674c-.162 0-.211.05-.211.212zm-2.859-1.538c1.009 0 1.747.157 1.747-.21V31.11c0-.362-.738-.211-1.747-.211v4.743z"
        fill="#1B1A17"></path>
      <path
        d="M37.103 44.011c0 1.37 2.094 1.37 2.094 0 0-1.338-2.094-1.397-2.094 0zm-1.948-13.948a.997.997 0 00.971-.977c0-.847-1.068-1.262-1.65-.68-.583.589-.174 1.657.68 1.657z"
        fill="#1B1A16"></path>
    </g>
    <defs>
      <clipPath id="clip0">
        <path fill="#fff" d="M0 0h40v45.69H0z"></path>
      </clipPath>
    </defs>
  </symbol>
  <symbol fill="none" xmlns="http://www.w3.org/2000/svg" viewBox="0 0 24 24" id="money">
    <path d="M7.612 7.582L1.5 11.018l6.739 4.91 6.112-3.764" stroke="#007AFF" stroke-miterlimit="10"
          stroke-linecap="round" stroke-linejoin="round"></path>
    <path
      d="M14.35 12.164L22.5 7.09 15.448 3l-5.015 2.782m6.739 7.036L22.5 9.545l-1.567-.981M1.5 13.473l6.739 4.909 6.112-3.764m2.821.819L22.5 12l-1.567-1.145"
      stroke="#007AFF" stroke-miterlimit="10" stroke-linecap="round" stroke-linejoin="round"></path>
    <path
      d="M1.5 15.927L8.239 21l6.112-3.764m2.821-1.8v-5.072l-7.366-4.91-2.82 1.637 7.365 5.073v5.072l2.82-1.8zM6.985 7.09v.655"
      stroke="#007AFF" stroke-miterlimit="10" stroke-linecap="round" stroke-linejoin="round"></path>
    <path d="M1.5 13.473l1.41-.818M1.5 16.09l1.41-.98" stroke="#007AFF" stroke-miterlimit="10"></path>
  </symbol>


  <symbol fill="none" xmlns="http://www.w3.org/2000/svg" viewBox="0 0 16 16" id="save">
    <path d="M2 14h13V4l-2-2H2v12z" stroke="#9DA3AC" stroke-linejoin="round"></path>
    <path stroke="#9DA3AC" stroke-linejoin="round" d="M4 2h8v4H4zm0 6h8v6H4z"></path>
    <path d="M6 10h4m-4 2h4" stroke="#9DA3AC" stroke-linecap="round"></path>
  </symbol>

  <symbol fill="none" xmlns="http://www.w3.org/2000/svg" viewBox="0 0 16 16" id="trashGray">
    <path d="M12 6H4v8h8V6z" stroke="#9DA3AC" stroke-width=".987" stroke-miterlimit="10"></path>
    <path d="M8 8v5M6 8v5m4-5v5" stroke="#9DA3AC" stroke-miterlimit="10"></path>
    <path d="M3 4h10" stroke="#9DA3AC" stroke-width=".907" stroke-miterlimit="10"></path>
    <path d="M6 4V2h4v2" stroke="#9DA3AC"></path>
  </symbol>

  <symbol fill="none" xmlns="http://www.w3.org/2000/svg" viewBox="0 0 16 16" id="trash">
    <path d="M12 6H4v8h8V6z" stroke="#FF2E43" stroke-width=".987" stroke-miterlimit="10"></path>
    <path d="M8 8v5M6 8v5m4-5v5" stroke="#FF2E43" stroke-miterlimit="10"></path>
    <path d="M3 4h10" stroke="#FF2E43" stroke-width=".907" stroke-miterlimit="10"></path>
    <path d="M6 4V2h4v2" stroke="#FF2E43"></path>
  </symbol>

  <symbol fill="none" xmlns="http://www.w3.org/2000/svg" viewBox="0 0 16 16" id="magnifier">
    <path d="M13.95 13.95L10 10" stroke="#2C3E50" stroke-miterlimit="10" stroke-linecap="round" stroke-linejoin="round">
    </path>
    <circle cx="6.5" cy="6.5" r="4.5" stroke="#2C3E50"></circle>
  </symbol>

  <symbol fill="none" xmlns="http://www.w3.org/2000/svg" viewBox="0 0 16 16" id="clearIcon">
    <path d="M2 2l12 12m0-12L2 14" stroke="#2C3E50" stroke-linecap="round" stroke-linejoin="round"></path>
  </symbol>

  <symbol fill="none" xmlns="http://www.w3.org/2000/svg" viewBox="0 0 16 12" id="doneIcon">
    <path d="M1 6.556L5.308 11 15 1" stroke="#fff" stroke-width="1.5" stroke-miterlimit="10" stroke-linecap="round"
          stroke-linejoin="round"></path>
  </symbol>

  <symbol fill="none" xmlns="http://www.w3.org/2000/svg" viewBox="0 0 12 5" id="dropdownArrow">
    <path d="M11 4.5L6 1 1 4.5" stroke="#2C3E50" stroke-linecap="round" stroke-linejoin="round"></path>
  </symbol>

  <symbol fill="none" xmlns="http://www.w3.org/2000/svg" viewBox="0 0 80 80" id="money">

    <path
      d="M27.727 27.727L10 37.273l19.546 13.636 17.727-10.454m0 0l23.636-14.091L50.455 15l-14.546 7.727m19.545 19.546l15.455-9.09-4.546-2.728"
      stroke="#00B92D" stroke-miterlimit="10" stroke-linecap="round" stroke-linejoin="round"></path>
    <path d="M10 44.09l19.546 13.637 17.727-10.454m8.181 2.273L70.91 40l-4.546-3.182" stroke="#00B92D"
          stroke-miterlimit="10" stroke-linecap="round" stroke-linejoin="round"></path>
    <path d="M10 50.91L29.546 65l17.727-10.455" stroke="#00B92D" stroke-miterlimit="10" stroke-linecap="round"
          stroke-linejoin="round"></path>
    <path d="M55.455 49.546V35.455L34.09 21.818l-8.182 4.546 21.364 14.09v14.092l8.182-5zM25.91 26.363v1.819"
          stroke="#00B92D" stroke-miterlimit="10" stroke-linecap="round" stroke-linejoin="round"></path>

    <path
      d="M27.727 27.727L10 37.273l19.546 13.636 17.727-10.454m0 0l23.636-14.091L50.455 15l-14.546 7.727m19.545 19.546l15.455-9.09-4.546-2.728"
      stroke="#00B92D" stroke-miterlimit="10" stroke-linecap="round" stroke-linejoin="round"></path>
    <path d="M10 44.09l19.546 13.637 17.727-10.454m8.181 2.273L70.91 40l-4.546-3.182" stroke="#00B92D"
          stroke-miterlimit="10" stroke-linecap="round" stroke-linejoin="round"></path>
    <path d="M10 50.91L29.546 65l17.727-10.455" stroke="#00B92D" stroke-miterlimit="10" stroke-linecap="round"
          stroke-linejoin="round"></path>
    <path d="M55.455 49.546V35.455L34.09 21.818l-8.182 4.546 21.364 14.09v14.092l8.182-5zM25.91 26.363v1.819"
          stroke="#00B92D" stroke-miterlimit="10" stroke-linecap="round" stroke-linejoin="round"></path>

    <path d="M10 44.091l4.09-2.273M10 51.364l4.09-2.727" stroke="#00B92D" stroke-miterlimit="10"></path>
  </symbol>

  <symbol fill="none" xmlns="http://www.w3.org/2000/svg" viewBox="0 0 80 80" id="feedback">

    <path
      d="M37.813 37.744H14.625m23.188 5.789H14.625m12.688 5.79H14.624m35.439-4.549h5.687l9.625 10.752V44.774H68c3.063 0 5.25-2.48 5.25-4.962V21.617c0-2.895-2.625-4.963-5.25-4.963H39.562c-3.062 0-5.25 2.481-5.25 4.962v4.136"
      stroke="#00B92D" stroke-miterlimit="10" stroke-linecap="round" stroke-linejoin="round"></path>
    <path
      d="M24.25 57.594l-9.188 10.752V57.594H12c-3.063 0-5.25-2.481-5.25-4.962V34.85c0-2.895 2.625-4.963 5.25-4.963h28.438c3.062 0 5.25 2.481 5.25 4.962v17.783c0 2.894-2.626 4.962-5.25 4.962H29.062"
      stroke="#00B92D" stroke-miterlimit="10" stroke-linecap="round" stroke-linejoin="round"></path>

    <path
      d="M37.813 37.744H14.625m23.188 5.789H14.625m12.688 5.79H14.624m35.439-4.549h5.687l9.625 10.752V44.774H68c3.063 0 5.25-2.48 5.25-4.962V21.617c0-2.895-2.625-4.963-5.25-4.963H39.562c-3.062 0-5.25 2.481-5.25 4.962v4.136"
      stroke="#00B92D" stroke-miterlimit="10" stroke-linecap="round" stroke-linejoin="round"></path>
    <path
      d="M24.25 57.594l-9.188 10.752V57.594H12c-3.063 0-5.25-2.481-5.25-4.962V34.85c0-2.895 2.625-4.963 5.25-4.963h28.438c3.062 0 5.25 2.481 5.25 4.962v17.783c0 2.894-2.626 4.962-5.25 4.962H29.062"
      stroke="#00B92D" stroke-miterlimit="10" stroke-linecap="round" stroke-linejoin="round"></path>

    <path d="M54 33a2 2 0 100-4 2 2 0 000 4zm11 0a2 2 0 100-4 2 2 0 000 4z" fill="#00B92D"></path>
  </symbol>

  <symbol xmlns="http://www.w3.org/2000/svg" viewBox="0 0 16 16" id="footer-facebook">
    <path
      d="M13.656 0H2.344A2.347 2.347 0 000 2.344v11.312A2.347 2.347 0 002.344 16h4.719v-5.656H5.188V7.53h1.875V5.625a2.816 2.816 0 012.812-2.813h2.844v2.813H9.875v1.906h2.844l-.469 2.813H9.875V16h3.781A2.347 2.347 0 0016 13.656V2.344A2.347 2.347 0 0013.656 0z"
    ></path>
  </symbol>

  <symbol fill="none" xmlns="http://www.w3.org/2000/svg" viewBox="0 0 16 16" id="footer-mail">
    <path d="M14.549 12.843V5H2v7.843h12.525" stroke="#2C3E50" stroke-miterlimit="10" stroke-linecap="round"
          stroke-linejoin="round"></path>
    <path d="M2 5c.11 0 6.5 5.5 6.5 5.5l6-5.5M2 12.843l3.451-4.314M11 8.5l3.404 3.751" stroke="#2C3E50"
          stroke-miterlimit="10" stroke-linecap="round" stroke-linejoin="round"></path>
  </symbol>

  <symbol fill="none" xmlns="http://www.w3.org/2000/svg" viewBox="0 0 16 16" id="footer-phone">
    <path
      d="M14 11.832c-.026.177-.026.302-.051.353 0 .025 0 .05-.026.075-.026.176-.154.352-.232.529 0 .025-.025.05-.051.05-.206.352-.489.528-.694.654-.155.1-.617.377-1.286.478-.257.025-.566.05-.977 0-1.955-.201-3.935-1.484-3.935-1.484-.257-.177-1.337-.88-2.314-2.013-.257-.327-.514-.629-.848-1.082-.592-.78-.798-1.107-.926-1.358a8.002 8.002 0 01-.386-.856c-.103-.327-.231-.679-.257-1.157a2.934 2.934 0 01.077-1.031c.026-.076.103-.428.334-.881.078-.15.18-.327.36-.528l.078-.076c.154-.15.36-.327.565-.402.206-.076.437-.101.669-.101.206 0 .463-.025.643.1.154.126.257.353.334.554.18.403.334.856.514 1.258.103.252.232.503.309.755.077.15.103.302.103.453-.026.075-.052.176-.103.226-.103.201-.283.403-.463.579a2.688 2.688 0 00-.231.276l-.052.05c-.026 0-.051.051-.077.127 0 0-.026.05-.026.1v.126c0 .05.026.1.052.126.025.1.103.201.154.302.154.251.36.528.566.754.205.252.36.403.36.403.103.15.565.654 1.337 1.182.334.252.591.378.797.478.18.101.334.202.514.302.18.1.386.201.617.176.18-.025.31-.125.438-.251.18-.176.308-.378.463-.554.154-.201.308-.377.462-.553l.103-.1c.052-.026.129-.026.18-.026.257 0 .463.151.669.252.437.251.874.478 1.337.704.206.1.411.176.617.277.206.1.283.277.283.503v.252z"
      stroke="#2C3E50" stroke-miterlimit="10"></path>
  </symbol>

  <symbol fill="none" xmlns="http://www.w3.org/2000/svg" viewBox="0 0 16 16" id="footer-whatsapp">
    <path
      d="M1 15l.98-3.476a7.007 7.007 0 01-.968-3.536C1.012 4.133 4.148 1 8.006 1 11.864 1 15 4.133 15 7.988c0 3.855-3.136 6.987-6.994 6.987a6.94 6.94 0 01-3.417-.893L1 15z"
      stroke="#2C3E50" stroke-miterlimit="10" stroke-linecap="round" stroke-linejoin="round"></path>
    <path
      d="M5.762 4.032l-.51-.03a.555.555 0 00-.44.163c-.249.237-.649.68-.76 1.258-.178.872.097 1.923.828 2.988.73 1.065 2.082 2.752 4.467 3.477.772.236 1.379.074 1.847-.252.372-.251.62-.666.717-1.124l.083-.415c.027-.133-.041-.266-.152-.31l-1.723-.858c-.11-.06-.248-.015-.317.089l-.676.946c-.055.074-.138.104-.22.074-.469-.177-2.013-.873-2.868-2.633-.041-.074-.027-.163.028-.237l.648-.799a.288.288 0 00.041-.296L6.011 4.21c-.056-.103-.152-.177-.249-.177z"
      stroke="#2C3E50" stroke-miterlimit="10" stroke-linecap="round" stroke-linejoin="round"></path>
  </symbol>

  <symbol xmlns="http://www.w3.org/2000/svg" viewBox="0 0 16 16" id="footer-insta">
    <path fill-rule="evenodd" clip-rule="evenodd"
          d="M4.331 0h7.338A4.337 4.337 0 0116 4.331v7.338A4.337 4.337 0 0111.669 16H4.33A4.337 4.337 0 010 11.669V4.33A4.337 4.337 0 014.331 0zm6.853 3.362a1.294 1.294 0 101.294-1.294c-.712 0-1.294.582-1.294 1.295zM8 12a4 4 0 100-8 4 4 0 000 8z"
    ></path>
  </symbol>

  <symbol fill="none" xmlns="http://www.w3.org/2000/svg" viewBox="0 0 24 24" id="filterIcon">
    <path d="M4 6h17M4 12h17M4 18h17" stroke="#2C3E50" stroke-width="1.2" stroke-linecap="round"
          stroke-linejoin="round"></path>
    <circle cx="7" cy="6" r="1" fill="#EEF0F5" stroke="#2C3E50"></circle>
    <path d="M8 18a1 1 0 11-2 0 1 1 0 012 0z" fill="#EEF0F5" stroke="#2C3E50"></path>
    <circle cx="17" cy="12" r="1" fill="#EEF0F5" stroke="#2C3E50"></circle>
  </symbol>

  <symbol fill="none" xmlns="http://www.w3.org/2000/svg" viewBox="0 0 12 5" id="filterArrow">
    <path d="M11 4.5L6 1 1 4.5" stroke-linecap="round" stroke-linejoin="round"></path>
  </symbol>

  <symbol xmlns="http://www.w3.org/2000/svg" viewBox="0 0 166 48" id="logo">
    <path
      d="M62.926 38.22v-28h10.316c10.342 0 15.511 4.55 15.508 13.652 0 4.36-1.41 7.843-4.232 10.448-2.822 2.605-6.58 3.907-11.276 3.904l-10.316-.004zm6.56-22.868v17.752h3.248c2.839 0 5.069-.82 6.69-2.46 1.622-1.64 2.43-3.873 2.424-6.7 0-2.667-.8-4.767-2.403-6.3-1.602-1.533-3.853-2.297-6.752-2.292h-3.206zM118.5 38.22h-7.131l-2.079-6.228H98.958l-2.079 6.228h-7.093l10.598-28h7.775l10.341 28zm-10.723-11.072l-3.127-9.416a11.94 11.94 0 01-.486-2.516h-.162c-.07.83-.24 1.649-.508 2.44l-3.168 9.492h7.451zm31.833-11.796h-8.316V38.22h-6.557V15.352h-8.274v-5.136h23.147v5.136zM166 38.22h-7.143l-2.079-6.228h-10.349l-2.05 6.228h-7.106l10.598-28h7.776l10.353 28zm-10.719-11.072l-3.127-9.416a11.94 11.94 0 01-.486-2.516h-.163c-.069.83-.239 1.649-.507 2.44l-3.168 9.492h7.451zM24.553 15.252h-.163c-.069.83-.24 1.649-.507 2.44L20.715 27.2h7.45l-3.126-9.412a12.02 12.02 0 01-.486-2.536z"
    ></path>
    <path
      d="M44.905 0H4.99a5.091 5.091 0 00-3.528 1.406A4.71 4.71 0 000 4.8v38.4a4.71 4.71 0 001.461 3.394A5.091 5.091 0 004.99 48h39.916a5.091 5.091 0 003.528-1.406 4.71 4.71 0 001.462-3.394V4.8a4.71 4.71 0 00-1.462-3.394A5.091 5.091 0 0044.905 0zM31.737 38.26l-2.079-6.232H19.305l-2.05 6.232h-7.097l10.598-28h7.776l10.353 28h-7.148z"
    ></path>
  </symbol>

  <symbol fill="none" id="request" xmlns="http://www.w3.org/2000/svg" viewBox="0 0 24 24">
    <path fill="#fff" d="M0 0h24v24H0z"></path>
    <path fill="#fff" d="M22 12A10 10 0 1112 2" stroke="#25476A" stroke-linecap="round"></path>
    <path fill="#fff" d="M12 7v5l-5 5" stroke="#25476A" stroke-linecap="round" stroke-linejoin="round"></path>
    <path fill="#fff"
          d="M14.138 2.82c.634-.847 2.757-1.422 3.198.274C17.805 4.846 14 6.214 14 7.5c.937-.027 3.667 0 3.667 0m3.348 0V2l-2.737 3.85h3.666"
          stroke="#25476A" stroke-miterlimit="10" stroke-linecap="round" stroke-linejoin="round"></path>
  </symbol>

  <symbol xmlns="http://www.w3.org/2000/svg" viewBox="0 0 16 16" id="exit">
    <path fill="#fff" d="M0 0h16v16H0z" stroke="none"></path>
    <path d="M11 10l2-2.054L11.077 6M10 11.9V14H2V2h8v1.65M12 8H5" stroke-miterlimit="10"
          stroke-linecap="round" stroke-linejoin="round"></path>
  </symbol>

  <symbol fill="none" xmlns="http://www.w3.org/2000/svg" viewBox="0 0 16 16" id="profile_exit">
    <path d="M11 10l2-2.054L11.077 6M10 11.9V14H2V2h8v1.65M12 8H5" stroke="#2C3E50" stroke-miterlimit="10"
          stroke-linecap="round" stroke-linejoin="round"></path>
  </symbol>
</svg>
